<?xml version="1.0" encoding="UTF-8" standalone="no"?>
<!-- Created with Inkscape (http://www.inkscape.org/) -->

<svg
   xmlns:dc="http://purl.org/dc/elements/1.1/"
   xmlns:cc="http://creativecommons.org/ns#"
   xmlns:rdf="http://www.w3.org/1999/02/22-rdf-syntax-ns#"
   xmlns:svg="http://www.w3.org/2000/svg"
   xmlns="http://www.w3.org/2000/svg"
   xmlns:sodipodi="http://sodipodi.sourceforge.net/DTD/sodipodi-0.dtd"
   xmlns:inkscape="http://www.inkscape.org/namespaces/inkscape"
   width="280"
   height="280"
   viewBox="0 0 262.50001 262.50001"
   id="svg2"
   version="1.1"
   inkscape:version="0.92.1 r15371"
   sodipodi:docname="LinuxFestLogo.svg"
   inkscape:export-filename="/home/dom/Dropbox/code/klf-monitor/images/klf-280.png"
   inkscape:export-xdpi="96"
   inkscape:export-ydpi="96">
  <defs
     id="defs4" />
  <sodipodi:namedview
     id="base"
     pagecolor="#ffffff"
     bordercolor="#666666"
     borderopacity="1.0"
     inkscape:pageopacity="0.0"
     inkscape:pageshadow="2"
     inkscape:zoom="1.979899"
     inkscape:cx="29.03774"
     inkscape:cy="90.053704"
     inkscape:document-units="px"
     inkscape:current-layer="layer1"
     showgrid="false"
     inkscape:window-width="1920"
     inkscape:window-height="1080"
     inkscape:window-x="0"
     inkscape:window-y="0"
     inkscape:window-maximized="1"
     units="px" />
  <metadata
     id="metadata7">
    <rdf:RDF>
      <cc:Work
         rdf:about="">
        <dc:format>image/svg+xml</dc:format>
        <dc:type
           rdf:resource="http://purl.org/dc/dcmitype/StillImage" />
        <dc:title />
      </cc:Work>
    </rdf:RDF>
  </metadata>
  <g
     inkscape:label="Layer 1"
     inkscape:groupmode="layer"
     id="layer1"
     transform="translate(0,-789.86221)">
    <path
       style="color:#000000;font-style:normal;font-variant:normal;font-weight:normal;font-stretch:normal;font-size:medium;line-height:normal;font-family:sans-serif;font-variant-ligatures:normal;font-variant-position:normal;font-variant-caps:normal;font-variant-numeric:normal;font-variant-alternates:normal;font-feature-settings:normal;text-indent:0;text-align:start;text-decoration:none;text-decoration-line:none;text-decoration-style:solid;text-decoration-color:#000000;letter-spacing:normal;word-spacing:normal;text-transform:none;writing-mode:lr-tb;direction:ltr;text-orientation:mixed;dominant-baseline:auto;baseline-shift:baseline;text-anchor:start;white-space:normal;shape-padding:0;clip-rule:nonzero;display:inline;overflow:visible;visibility:visible;opacity:1;isolation:auto;mix-blend-mode:normal;color-interpolation:sRGB;color-interpolation-filters:linearRGB;solid-color:#000000;solid-opacity:1;vector-effect:none;fill:#211e1e;fill-opacity:1;fill-rule:nonzero;stroke:#ffffff;stroke-width:9.37500036;stroke-linecap:round;stroke-linejoin:round;stroke-miterlimit:10;stroke-dasharray:none;stroke-dashoffset:0;stroke-opacity:1;color-rendering:auto;image-rendering:auto;shape-rendering:auto;text-rendering:auto;enable-background:accumulate"
       d="m 126.67786,798.01773 c -9.81909,0 -17.41725,3.27875 -22.46521,9.09302 -5.04796,5.81427 -7.516482,14.04697 -7.516482,23.80554 0,13.82499 -6.102432,26.35948 -12.33032,39.11682 -6.227887,12.75735 -12.577519,25.73947 -12.577519,40.44801 0,7.49921 1.079859,14.40819 3.127444,20.62133 -0.747675,0.56275 -1.449891,1.16252 -2.0874,1.79993 -2.941744,2.93991 -5.077388,7.17944 -6.071775,11.62903 -0.624816,2.79577 -0.714966,5.72324 -0.06775,8.44849 -12.456141,0.21604 -23.027344,8.62233 -23.027344,19.68383 v 53.44667 c 0,11.2061 10.839441,19.7241 23.507082,19.7241 H 195.33143 c 12.66764,0 23.50708,-8.518 23.50708,-19.7241 v -53.10426 a 2.8481883,2.8481883 0 0 0 -2.84729,-2.84729 h -10.31433 c -2.2542,0 -4.21875,-1.97936 -4.21875,-4.72229 v -9.41895 a 2.8481883,2.8481883 0 0 0 -2.47925,-2.82349 c -1.15985,-0.15139 -2.37439,-0.25451 -3.64746,-0.25451 h -8.65357 c 0.63614,-2.71388 0.54467,-5.62653 -0.0769,-8.4082 -0.9943,-4.44976 -3.13011,-8.6892 -6.07178,-11.62903 -0.636,-0.6359 -1.3446,-1.22559 -2.09106,-1.78345 2.05117,-6.21739 3.13294,-13.13199 3.13294,-20.63781 0,-14.54111 -6.36045,-26.84564 -12.58302,-39.29078 -6.22256,-12.44514 -12.32299,-25.033 -12.32299,-40.27405 0,-9.75857 -2.46991,-17.99127 -7.51831,-23.80554 -5.0484,-5.81428 -12.64825,-9.09302 -22.46888,-9.09302 z"
       id="path3256"
       inkscape:connector-curvature="0" />
    <path
       inkscape:connector-curvature="0"
       style="fill:#211e1e;fill-opacity:1;fill-rule:nonzero;stroke:#211e1e;stroke-width:5.69580698;stroke-linecap:round;stroke-linejoin:round;stroke-miterlimit:10;stroke-opacity:1"
       d="m 205.67693,973.00699 c -3.90315,0 -7.06573,-3.39139 -7.06573,-7.57106 v -9.41781 c -1.07113,-0.13983 -2.16134,-0.232 -3.28019,-0.232 H 67.168998 c -11.410683,0 -20.660022,7.55518 -20.660022,16.87762 v 53.44586 c 0,9.3225 9.249339,16.8776 20.660022,16.8776 H 195.33101 c 11.41069,0 20.66002,-7.5551 20.66002,-16.8776 v -53.10261 z m 0,0"
       id="path4324" />
    <path
       inkscape:connector-curvature="0"
       style="fill:#ffffff;fill-opacity:1;fill-rule:nonzero;stroke:none;stroke-width:1.08333349"
       d="m 87.603368,989.94821 6.773326,-6.94173 h 3.509013 l -7.869908,7.87624 7.911236,9.52578 H 94.41166 l -6.264802,-7.7459 -0.54349,0.54354 v 7.20236 h -2.625407 v -17.40202 h 2.625407 z m 0,0"
       id="path4326" />
    <path
       inkscape:connector-curvature="0"
       style="fill:#ffffff;fill-opacity:1;fill-rule:nonzero;stroke:none;stroke-width:1.08333349"
       d="m 109.42353,993.71154 -2.57776,-5.91512 -2.70483,5.91512 z m 1.07113,2.46964 h -7.44712 l -1.94204,4.22732 h -2.82883 l 8.61361,-18.4986 8.30853,18.4986 h -2.87654 z m 0,0"
       id="path4328" />
    <path
       inkscape:connector-curvature="0"
       style="fill:#ffffff;fill-opacity:1;fill-rule:nonzero;stroke:none;stroke-width:1.08333349"
       d="m 117.37286,1000.4085 v -18.5876 l 12.68842,13.27645 v -12.09087 h 2.62542 v 18.46042 l -12.68844,-13.24462 v 12.18622 z m 0,0"
       id="path4330" />
    <path
       inkscape:connector-curvature="0"
       style="fill:#ffffff;fill-opacity:1;fill-rule:nonzero;stroke:none;stroke-width:1.08333349"
       d="m 146.69735,985.58736 -2.12953,1.26188 c -0.39733,-0.69293 -0.77873,-1.14112 -1.14111,-1.35405 -0.37501,-0.23838 -0.85503,-0.36231 -1.45253,-0.36231 -0.72789,0 -1.33177,0.20973 -1.81172,0.62295 -0.48314,0.40685 -0.7247,0.91856 -0.7247,1.53201 0,0.85184 0.63572,1.5352 1.8912,2.05328 l 1.73862,0.71195 c 1.41119,0.569 2.44738,1.26824 3.10217,2.09144 0.65159,0.82325 0.97896,1.83398 0.97896,3.02913 0,1.60191 -0.53397,2.92412 -1.5988,3.96988 -1.07426,1.05528 -2.41241,1.57958 -4.00164,1.57958 -1.51294,0 -2.76211,-0.4512 -3.74426,-1.34759 -0.9694,-0.89947 -1.57335,-2.15815 -1.81173,-3.77914 l 2.65725,-0.58801 c 0.12393,1.02023 0.33054,1.72906 0.63246,2.12001 0.54035,0.75009 1.33177,1.12517 2.37114,1.12517 0.81688,0 1.49387,-0.27334 2.03742,-0.82007 0.53716,-0.54667 0.81048,-1.24272 0.81048,-2.08505 0,-0.33694 -0.0476,-0.64842 -0.143,-0.93132 -0.0889,-0.27652 -0.23837,-0.53709 -0.43549,-0.77553 -0.20024,-0.2352 -0.45768,-0.45769 -0.77554,-0.66111 -0.3178,-0.20973 -0.69288,-0.40684 -1.12516,-0.59118 l -1.67822,-0.69926 c -2.38385,-1.00761 -3.5758,-2.4792 -3.5758,-4.41487 0,-1.30952 0.49902,-2.39979 1.50344,-3.2802 0.99485,-0.8836 2.24082,-1.32859 3.72518,-1.32859 2.00877,0 3.57254,0.97577 4.70091,2.921"
       id="path4332" />
    <path
       inkscape:connector-curvature="0"
       style="fill:#ffffff;fill-opacity:1;fill-rule:nonzero;stroke:none;stroke-width:1.08333349"
       d="m 159.28409,993.71154 -2.57776,-5.91512 -2.70487,5.91512 z m 1.07114,2.46964 h -7.44712 l -1.9389,4.22732 h -2.82565 l 8.61048,-18.4986 8.30529,18.4986 h -2.8765 z m 0,0"
       id="path4334" />
    <path
       inkscape:connector-curvature="0"
       style="fill:#ffffff;fill-opacity:1;fill-rule:nonzero;stroke:none;stroke-width:1.08333349"
       d="m 177.07397,985.58736 -2.12959,1.26188 c -0.39733,-0.69293 -0.77873,-1.14112 -1.13792,-1.35405 -0.37503,-0.23838 -0.86134,-0.36231 -1.45573,-0.36231 -0.72783,0 -1.33177,0.20973 -1.8149,0.62295 -0.48314,0.40685 -0.72152,0.91856 -0.72152,1.53201 0,0.85184 0.63253,1.5352 1.89439,2.05328 l 1.73224,0.71195 c 1.41445,0.569 2.45065,1.26824 3.10536,2.09144 0.64841,0.82325 0.97583,1.83398 0.97583,3.02913 0,1.60191 -0.53404,2.92412 -1.59879,3.96988 -1.07432,1.05528 -2.40611,1.57958 -4.00171,1.57958 -1.50974,0 -2.76205,-0.4512 -3.74101,-1.34759 -0.96625,-0.89947 -1.57334,-2.15815 -1.81489,-3.77914 l 2.66034,-0.58801 c 0.12078,1.02023 0.32737,1.72906 0.62935,2.12001 0.54354,0.75009 1.33177,1.12517 2.37113,1.12517 0.81689,0 1.49707,-0.27334 2.03742,-0.82007 0.54028,-0.54667 0.81368,-1.24272 0.81368,-2.08505 0,-0.33694 -0.0507,-0.64842 -0.14626,-0.93132 -0.0889,-0.27652 -0.23838,-0.53709 -0.43861,-0.77553 -0.19704,-0.2352 -0.4545,-0.45769 -0.76916,-0.66111 -0.31786,-0.20973 -0.69294,-0.40684 -1.12835,-0.59118 l -1.67823,-0.69926 c -2.38071,-1.00761 -3.57579,-2.4792 -3.57579,-4.41487 0,-1.30952 0.49902,-2.39979 1.50343,-3.2802 0.99804,-0.8836 2.24078,-1.32859 3.72833,-1.32859 2.00562,0 3.5726,0.97577 4.70096,2.921"
       id="path4336" />
    <path
       inkscape:connector-curvature="0"
       style="fill:#ffffff;fill-opacity:1;fill-rule:nonzero;stroke:none;stroke-width:1.08333349"
       d="m 72.712264,1006.1552 v 14.9324 h 5.120506 v 2.4665 h -7.742745 v -17.3989 z m 0,0"
       id="path4338" />
    <path
       inkscape:connector-curvature="0"
       style="fill:#ffffff;fill-opacity:1;fill-rule:nonzero;stroke:none;stroke-width:1.08333349"
       d="m 82.953251,1023.5541 h -2.631745 v -17.3989 h 2.631745 z m 0,0"
       id="path4340" />
    <path
       inkscape:connector-curvature="0"
       style="fill:#ffffff;fill-opacity:1;fill-rule:nonzero;stroke:none;stroke-width:1.08333349"
       d="m 87.13293,1023.5541 v -18.5844 l 12.691626,13.2764 v -12.0909 h 2.619034 v 18.4605 l -12.685252,-13.2446 v 12.183 z m 0,0"
       id="path4342" />
    <path
       inkscape:connector-curvature="0"
       style="fill:#ffffff;fill-opacity:1;fill-rule:nonzero;stroke:none;stroke-width:1.08333349"
       d="m 109.24556,1006.1552 v 10.473 c 0,1.4939 0.24468,2.5842 0.73101,3.2738 0.73421,1.0013 1.7545,1.5002 3.0799,1.5002 1.32545,0 2.35527,-0.4989 3.08635,-1.5002 0.48945,-0.6643 0.72782,-1.7577 0.72782,-3.2738 v -10.473 h 2.6318 v 11.2009 c 0,1.834 -0.57212,3.3437 -1.71317,4.5324 -1.28733,1.3223 -2.86698,1.9835 -4.7328,1.9835 -1.87525,0 -3.4486,-0.6612 -4.72316,-1.9835 -1.14423,-1.1887 -1.71635,-2.6984 -1.71635,-4.5324 v -11.2009 z m 0,0"
       id="path4344" />
    <path
       inkscape:connector-curvature="0"
       style="fill:#ffffff;fill-opacity:1;fill-rule:nonzero;stroke:none;stroke-width:1.08333349"
       d="m 127.30875,1014.4606 -4.78677,-8.3054 h 2.98456 l 3.32784,5.8929 3.49001,-5.8929 h 3.01317 l -5.01563,8.3054 5.26032,9.0935 h -2.93688 l -3.85545,-6.6589 -3.96995,6.6589 h -2.97822 z m 0,0"
       id="path4346" />
    <path
       inkscape:connector-curvature="0"
       style="fill:#ffffff;fill-opacity:1;fill-rule:nonzero;stroke:none;stroke-width:1.08333349"
       d="m 153.744,1008.6217 h -6.06131 v 4.1829 h 5.842 v 2.4664 h -5.842 v 8.2831 h -2.6318 v -17.3989 h 8.69311 z m 0,0"
       id="path4348" />
    <path
       inkscape:connector-curvature="0"
       style="fill:#ffffff;fill-opacity:1;fill-rule:nonzero;stroke:none;stroke-width:1.08333349"
       d="m 166.38478,1008.6217 h -6.97036 v 4.1829 h 6.77326 v 2.4664 h -6.77326 v 5.8166 h 6.97036 v 2.4665 h -9.60214 v -17.3989 h 9.60214 z m 0,0"
       id="path4350" />
    <path
       inkscape:connector-curvature="0"
       style="fill:#ffffff;fill-opacity:1;fill-rule:nonzero;stroke:none;stroke-width:1.08333349"
       d="m 179.6771,1008.7329 -2.12957,1.2651 c -0.39727,-0.6929 -0.77873,-1.1442 -1.14105,-1.3541 -0.37189,-0.2416 -0.8582,-0.3623 -1.4526,-0.3623 -0.73101,0 -1.33177,0.2098 -1.81485,0.623 -0.48312,0.4068 -0.72151,0.9154 -0.72151,1.532 0,0.8486 0.63246,1.5352 1.89433,2.0533 l 1.73544,0.7119 c 1.41125,0.569 2.44425,1.2683 3.09904,2.0915 0.65153,0.8232 0.98214,1.8339 0.98214,3.029 0,1.5988 -0.53403,2.9243 -1.59879,3.97 -1.07434,1.052 -2.41561,1.5797 -4.00171,1.5797 -1.51294,0 -2.76205,-0.4482 -3.74419,-1.3476 -0.96947,-0.8996 -1.57655,-2.1583 -1.81492,-3.7793 l 2.65716,-0.588 c 0.12401,1.0203 0.33376,1.7259 0.63574,2.1168 0.54035,0.7534 1.32858,1.1283 2.36795,1.1283 0.81689,0 1.49386,-0.2733 2.03741,-0.8231 0.54035,-0.5467 0.8105,-1.2396 0.8105,-2.0819 0,-0.3369 -0.0476,-0.6484 -0.14302,-0.9281 -0.089,-0.2829 -0.23838,-0.5404 -0.43868,-0.7787 -0.19385,-0.2384 -0.45449,-0.4577 -0.77235,-0.6643 -0.31466,-0.2066 -0.68974,-0.4038 -1.12516,-0.5912 l -1.67822,-0.6961 c -2.38384,-1.0075 -3.5726,-2.4793 -3.5726,-4.4181 0,-1.3063 0.49583,-2.3997 1.50025,-3.277 0.99804,-0.8868 2.24081,-1.3286 3.72831,-1.3286 2.00564,0 3.5726,0.9726 4.70096,2.9178"
       id="path4352" />
    <path
       inkscape:connector-curvature="0"
       style="fill:#ffffff;fill-opacity:1;fill-rule:nonzero;stroke:none;stroke-width:1.08333349"
       d="m 188.42105,1008.6217 v 14.9324 h -2.6254 v -14.9324 h -4.00166 v -2.4665 h 10.616 v 2.4665 z m 0,0"
       id="path4354" />
    <path
       inkscape:connector-curvature="0"
       style="fill:#211e1e;fill-opacity:1;fill-rule:nonzero;stroke:none;stroke-width:1.08333349"
       d="m 180.35098,910.48024 c 0,32.86213 -20.80943,53.79868 -53.67157,53.79868 -32.858941,0 -53.671551,-20.93655 -53.671551,-53.79868 0,-28.71104 24.909609,-51.19868 24.909609,-79.5633 0,-19.10573 9.659382,-31.67973 28.761942,-31.67973 19.10575,0 28.76507,12.574 28.76507,31.67973 0,31.13306 24.9065,51.19551 24.9065,79.5633"
       id="path4356" />
    <path
       inkscape:connector-curvature="0"
       style="fill:none;stroke:#211e1e;stroke-width:2.44106007;stroke-linecap:round;stroke-linejoin:miter;stroke-miterlimit:10;stroke-opacity:1"
       d="m 180.3509,910.4803 c 0,32.86215 -20.80942,53.79869 -53.67155,53.79869 -32.858955,0 -53.671515,-20.93654 -53.671515,-53.79869 0,-28.7111 24.909633,-51.19874 24.909633,-79.56331 0,-19.10576 9.659312,-31.67976 28.761882,-31.67976 19.10575,0 28.76513,12.574 28.76513,31.67976 0,31.13306 24.90642,51.19552 24.90642,79.56331 z m 0,0"
       id="path4358" />
    <path
       inkscape:connector-curvature="0"
       style="fill:#ffffff;fill-opacity:1;fill-rule:nonzero;stroke:none;stroke-width:1.08333349"
       d="m 169.22951,923.09557 c 0,23.49843 -19.04855,36.84478 -42.5501,36.84478 -23.50155,0 -42.550089,-13.34634 -42.550089,-36.84478 0,-20.53283 23.641379,-48.27135 23.641379,-68.55627 0,-13.66421 18.90871,10.23147 18.90871,10.23147 0,0 18.91184,-23.89568 18.91184,-10.23147 0,22.26512 23.63826,48.26814 23.63826,68.55627"
       id="path4360" />
    <path
       inkscape:connector-curvature="0"
       style="fill:none;stroke:#211e1e;stroke-width:2.44106007;stroke-linecap:round;stroke-linejoin:miter;stroke-miterlimit:10;stroke-opacity:1"
       d="m 169.22951,923.09557 c 0,23.49836 -19.04855,36.84478 -42.5501,36.84478 -23.50155,0 -42.550089,-13.34642 -42.550089,-36.84478 0,-20.5329 23.641439,-48.27135 23.641439,-68.55629 0,-13.66422 18.90865,10.23149 18.90865,10.23149 0,0 18.9119,-23.89571 18.9119,-10.23149 0,22.26514 23.6382,48.26816 23.6382,68.55629 z m 0,0"
       id="path4362" />
    <path
       inkscape:connector-curvature="0"
       style="fill:#211e1e;fill-opacity:1;fill-rule:nonzero;stroke:none;stroke-width:1.08333349"
       d="m 103.50523,874.48418 c -8.804361,31.37458 25.62475,47.82946 22.26833,51.18597 -3.3565,3.3596 -27.379329,-5.28897 -38.742298,-16.65201"
       id="path4364" />
    <path
       inkscape:connector-curvature="0"
       style="fill:#211e1e;fill-opacity:1;fill-rule:nonzero;stroke:none;stroke-width:1.08333349"
       d="m 149.77731,874.48418 c 8.79797,31.37458 -25.62482,47.82946 -22.26833,51.18597 3.35643,3.3596 27.15365,-5.96595 38.51981,-17.32899"
       id="path4366" />
    <path
       style="color:#000000;font-style:normal;font-variant:normal;font-weight:normal;font-stretch:normal;font-size:medium;line-height:normal;font-family:sans-serif;text-indent:0;text-align:start;text-decoration:none;text-decoration-line:none;text-decoration-style:solid;text-decoration-color:#000000;letter-spacing:normal;word-spacing:normal;text-transform:none;writing-mode:lr-tb;direction:ltr;baseline-shift:baseline;text-anchor:start;white-space:normal;clip-rule:nonzero;display:inline;overflow:visible;visibility:visible;opacity:1;isolation:auto;mix-blend-mode:normal;color-interpolation:sRGB;color-interpolation-filters:linearRGB;solid-color:#000000;solid-opacity:1;fill:#f3cc11;fill-opacity:1;fill-rule:nonzero;stroke:#000000;stroke-width:1.22091687;stroke-linecap:round;stroke-linejoin:miter;stroke-miterlimit:10;stroke-dasharray:none;stroke-dashoffset:0;stroke-opacity:1;color-rendering:auto;image-rendering:auto;shape-rendering:auto;text-rendering:auto;enable-background:accumulate"
       d="m 126.67969,877.49228 c -0.78562,0.0117 -1.41337,0.6574 -1.40283,1.44303 v 50.80242 c -0.0232,1.92167 2.87113,1.92167 2.84797,0 v -50.80242 c 0.0108,-0.80221 -0.64294,-1.45497 -1.44514,-1.44303 z"
       id="path4368"
       inkscape:connector-curvature="0"
       sodipodi:nodetypes="cccccc" />
    <path
       inkscape:connector-curvature="0"
       style="fill:#f3cc11;fill-opacity:1;fill-rule:nonzero;stroke:none;stroke-width:1.22091687;stroke-miterlimit:10;stroke-dasharray:none"
       d="m 130.91312,878.75602 c 0,2.32662 -1.88482,4.21145 -4.21144,4.21145 -2.32351,0 -4.21151,-1.88483 -4.21151,-4.21145 0,-2.32349 4.21151,-7.69187 4.21151,-7.69187 0,0 4.21144,5.36838 4.21144,7.69187"
       id="path4370" />
    <path
       inkscape:connector-curvature="0"
       style="fill:#f3cc11;fill-opacity:1;stroke:#000000;stroke-width:1.22091687;stroke-linecap:butt;stroke-linejoin:miter;stroke-miterlimit:10;stroke-dasharray:none;stroke-opacity:1"
       d="m 130.91312,878.75602 c 0,2.32662 -1.88482,4.21151 -4.21144,4.21151 -2.32351,0 -4.21151,-1.88489 -4.21151,-4.21151 0,-2.32344 4.21151,-7.69187 4.21151,-7.69187 0,0 4.21144,5.36843 4.21144,7.69187 z m 0,0"
       id="path4372" />
    <path
       inkscape:connector-curvature="0"
       style="fill:#f3cc11;fill-opacity:1;fill-rule:nonzero;stroke:none;stroke-width:1.22091687;stroke-miterlimit:10;stroke-dasharray:none"
       d="m 133.92631,887.86865 c -1.64646,1.64327 -4.31319,1.64327 -5.95965,0 -1.64325,-1.64323 -1.64325,-4.31 0,-5.95642 1.64646,-1.64647 8.41977,-2.45696 8.41977,-2.45696 0,0 -0.81686,6.77015 -2.46012,8.41338"
       id="path4374" />
    <path
       inkscape:connector-curvature="0"
       style="fill:#f3cc11;fill-opacity:1;stroke:#000000;stroke-width:1.22091687;stroke-linecap:butt;stroke-linejoin:miter;stroke-miterlimit:10;stroke-dasharray:none;stroke-opacity:1"
       d="m 133.92631,887.86865 c -1.64646,1.64327 -4.31314,1.64327 -5.95958,0 -1.64332,-1.64323 -1.64332,-4.31 0,-5.95642 1.64644,-1.64647 8.4197,-2.45696 8.4197,-2.45696 0,0 -0.81686,6.77015 -2.46012,8.41338 z m 0,0"
       id="path4376" />
    <path
       inkscape:connector-curvature="0"
       style="fill:#f3cc11;fill-opacity:1;fill-rule:nonzero;stroke:none;stroke-width:1.22091687;stroke-miterlimit:10;stroke-dasharray:none"
       d="m 125.43342,881.91223 c 1.64645,1.64642 1.64645,4.31319 0,5.95642 -1.64325,1.64327 -4.31,1.64327 -5.95644,0 -1.64645,-1.64323 -2.46014,-8.41338 -2.46014,-8.41338 0,0 6.77333,0.81369 8.41658,2.45696"
       id="path4378" />
    <path
       inkscape:connector-curvature="0"
       style="fill:#f3cc11;fill-opacity:1;stroke:#000000;stroke-width:1.22091687;stroke-linecap:butt;stroke-linejoin:miter;stroke-miterlimit:10;stroke-dasharray:none;stroke-opacity:1"
       d="m 125.43342,881.91228 c 1.64645,1.64645 1.64645,4.31314 0,5.95645 -1.64325,1.64325 -4.31,1.64325 -5.95644,0 -1.64645,-1.64331 -2.46014,-8.41346 -2.46014,-8.41346 0,0 6.77333,0.81369 8.41658,2.45701 z m 0,0"
       id="path4380" />
    <path
       inkscape:connector-curvature="0"
       style="fill:#f3cc11;fill-opacity:1;fill-rule:nonzero;stroke:none;stroke-width:1.22091687;stroke-miterlimit:10;stroke-dasharray:none"
       d="m 133.92631,894.00309 c -1.64646,1.64643 -4.31319,1.64643 -5.95965,0 -1.64325,-1.64326 -1.64325,-4.31314 0,-5.95327 1.64646,-1.64644 8.41977,-2.46332 8.41977,-2.46332 0,0 -0.81686,6.77333 -2.46012,8.41659"
       id="path4382" />
    <path
       inkscape:connector-curvature="0"
       style="fill:#f3cc11;fill-opacity:1;stroke:#000000;stroke-width:1.22091687;stroke-linecap:butt;stroke-linejoin:miter;stroke-miterlimit:10;stroke-dasharray:none;stroke-opacity:1"
       d="m 133.92631,894.00315 c -1.64646,1.64645 -4.31314,1.64645 -5.95958,0 -1.64332,-1.64332 -1.64332,-4.3132 0,-5.95333 1.64644,-1.64638 8.4197,-2.46326 8.4197,-2.46326 0,0 -0.81686,6.77327 -2.46012,8.41659 z m 0,0"
       id="path4384" />
    <path
       inkscape:connector-curvature="0"
       style="fill:#f3cc11;fill-opacity:1;fill-rule:nonzero;stroke:none;stroke-width:1.22091687;stroke-miterlimit:10;stroke-dasharray:none"
       d="m 125.43342,888.04982 c 1.64645,1.64013 1.64645,4.31001 0,5.95327 -1.64325,1.64643 -4.31,1.64643 -5.95644,0 -1.64645,-1.64326 -2.46014,-8.41659 -2.46014,-8.41659 0,0 6.77333,0.81688 8.41658,2.46332"
       id="path4386" />
    <path
       inkscape:connector-curvature="0"
       style="fill:#f3cc11;fill-opacity:1;stroke:#000000;stroke-width:1.22091687;stroke-linecap:butt;stroke-linejoin:miter;stroke-miterlimit:10;stroke-dasharray:none;stroke-opacity:1"
       d="m 125.43342,888.04982 c 1.64645,1.64013 1.64645,4.31001 0,5.95333 -1.64325,1.64645 -4.31,1.64645 -5.95644,0 -1.64645,-1.64332 -2.46014,-8.41659 -2.46014,-8.41659 0,0 6.77333,0.81687 8.41658,2.46326 z m 0,0"
       id="path4388" />
    <path
       inkscape:connector-curvature="0"
       style="fill:#f3cc11;fill-opacity:1;fill-rule:nonzero;stroke:none;stroke-width:1.22091687;stroke-miterlimit:10;stroke-dasharray:none"
       d="m 133.92631,900.13756 c -1.64646,1.64646 -4.31319,1.64646 -5.95965,0 -1.64325,-1.64326 -1.64325,-4.31 0,-5.95326 1.64646,-1.64644 8.41977,-2.46013 8.41977,-2.46013 0,0 -0.81686,6.77013 -2.46012,8.41339"
       id="path4390" />
    <path
       inkscape:connector-curvature="0"
       style="fill:#f3cc11;fill-opacity:1;stroke:#000000;stroke-width:1.22091687;stroke-linecap:butt;stroke-linejoin:miter;stroke-miterlimit:10;stroke-dasharray:none;stroke-opacity:1"
       d="m 133.92631,900.13756 c -1.64646,1.64646 -4.31314,1.64646 -5.95958,0 -1.64332,-1.64331 -1.64332,-4.31 0,-5.95326 1.64644,-1.64644 8.4197,-2.46013 8.4197,-2.46013 0,0 -0.81686,6.77008 -2.46012,8.41339 z m 0,0"
       id="path4392" />
    <path
       inkscape:connector-curvature="0"
       style="fill:#f3cc11;fill-opacity:1;fill-rule:nonzero;stroke:none;stroke-width:1.22091687;stroke-miterlimit:10;stroke-dasharray:none"
       d="m 125.43342,894.1843 c 1.64645,1.64326 1.64645,4.31 0,5.95326 -1.64325,1.64646 -4.31,1.64646 -5.95644,0 -1.64645,-1.64326 -2.46014,-8.41339 -2.46014,-8.41339 0,0 6.77333,0.81369 8.41658,2.46013"
       id="path4394" />
    <path
       inkscape:connector-curvature="0"
       style="fill:#f3cc11;fill-opacity:1;stroke:#000000;stroke-width:1.22091687;stroke-linecap:butt;stroke-linejoin:miter;stroke-miterlimit:10;stroke-dasharray:none;stroke-opacity:1"
       d="m 125.43342,894.1843 c 1.64645,1.64326 1.64645,4.31 0,5.95326 -1.64325,1.64646 -4.31,1.64646 -5.95644,0 -1.64645,-1.64326 -2.46014,-8.41339 -2.46014,-8.41339 0,0 6.77333,0.81369 8.41658,2.46013 z m 0,0"
       id="path4396" />
    <path
       inkscape:connector-curvature="0"
       style="fill:#f3cc11;fill-opacity:1;fill-rule:nonzero;stroke:none;stroke-width:1.22091687;stroke-miterlimit:10;stroke-dasharray:none"
       d="m 133.92631,906.27517 c -1.64646,1.64326 -4.31319,1.64326 -5.95965,0 -1.64325,-1.64644 -1.64325,-4.31639 0,-5.95645 1.64646,-1.64644 8.41977,-2.46014 8.41977,-2.46014 0,0 -0.81686,6.77014 -2.46012,8.41659"
       id="path4398" />
    <path
       inkscape:connector-curvature="0"
       style="fill:#f3cc11;fill-opacity:1;stroke:#000000;stroke-width:1.22091687;stroke-linecap:butt;stroke-linejoin:miter;stroke-miterlimit:10;stroke-dasharray:none;stroke-opacity:1"
       d="m 133.92631,906.27517 c -1.64646,1.64326 -4.31314,1.64326 -5.95958,0 -1.64332,-1.64644 -1.64332,-4.31631 0,-5.95645 1.64644,-1.64644 8.4197,-2.46014 8.4197,-2.46014 0,0 -0.81686,6.77014 -2.46012,8.41659 z m 0,0"
       id="path4400" />
    <path
       inkscape:connector-curvature="0"
       style="fill:#f3cc11;fill-opacity:1;fill-rule:nonzero;stroke:none;stroke-width:1.22091687;stroke-miterlimit:10;stroke-dasharray:none"
       d="m 125.43342,900.31872 c 1.64645,1.64006 1.64645,4.31001 0,5.95645 -1.64325,1.64326 -4.31,1.64326 -5.95644,0 -1.64645,-1.64644 -2.46014,-8.41659 -2.46014,-8.41659 0,0 6.77333,0.8137 8.41658,2.46014"
       id="path4402" />
    <path
       inkscape:connector-curvature="0"
       style="fill:#f3cc11;fill-opacity:1;stroke:#000000;stroke-width:1.22091687;stroke-linecap:butt;stroke-linejoin:miter;stroke-miterlimit:10;stroke-dasharray:none;stroke-opacity:1"
       d="m 125.43342,900.31872 c 1.64645,1.64006 1.64645,4.31001 0,5.95645 -1.64325,1.64326 -4.31,1.64326 -5.95644,0 -1.64645,-1.64644 -2.46014,-8.41659 -2.46014,-8.41659 0,0 6.77333,0.8137 8.41658,2.46014 z m 0,0"
       id="path4404" />
    <path
       inkscape:connector-curvature="0"
       style="fill:#f3cc11;fill-opacity:1;fill-rule:nonzero;stroke:#211e1e;stroke-width:4.88212013;stroke-linecap:butt;stroke-linejoin:miter;stroke-miterlimit:10;stroke-opacity:1"
       d="m 109.05163,950.7578 c 5.07285,5.07278 5.07285,13.2955 0,18.3683 -5.07284,5.07603 -13.298699,5.07603 -18.371539,0 L 71.596607,956.5267 c -5.069646,-5.07285 -1.830793,-16.53756 3.245216,-21.61041 5.072828,-5.07278 16.534393,-8.31165 21.610367,-3.24199 z m 0,0"
       id="path4406" />
    <path
       inkscape:connector-curvature="0"
       style="fill:#f3cc11;fill-opacity:1;fill-rule:nonzero;stroke:#211e1e;stroke-width:4.88212013;stroke-linecap:butt;stroke-linejoin:miter;stroke-miterlimit:10;stroke-opacity:1"
       d="m 162.67873,969.1261 c -5.06965,5.07597 -13.29558,5.07597 -18.37155,0 -5.06964,-5.07285 -5.06964,-13.29552 0,-18.36838 l 12.5994,-19.0803 c 5.07284,-5.07283 16.53756,-1.83397 21.61041,3.23887 5.07597,5.07279 8.31482,16.5375 3.24205,21.61036 z m 0,0"
       id="path4408" />
    <path
       inkscape:connector-curvature="0"
       style="fill:#ffffff;fill-opacity:1;fill-rule:nonzero;stroke:none;stroke-width:1.08333349"
       d="m 145.57856,831.71475 c 0,5.88969 -3.17527,10.66375 -7.09438,10.66375 -3.92216,0 -7.0943,-4.77406 -7.0943,-10.66375 0,-5.88652 3.17214,-10.66056 7.0943,-10.66056 3.91911,0 7.09438,4.77406 7.09438,10.66056"
       id="path4410" />
    <path
       inkscape:connector-curvature="0"
       style="fill:#211e1e;fill-opacity:1;fill-rule:nonzero;stroke:none;stroke-width:1.08333349"
       d="m 143.70323,836.18686 c 0,4.52612 -2.33613,8.19407 -5.22217,8.19407 -2.88287,0 -5.21906,-3.66795 -5.21906,-8.19407 0,-4.52933 2.33619,-8.19727 5.21906,-8.19727 2.88604,0 5.22217,3.66794 5.22217,8.19727"
       id="path4412" />
    <path
       inkscape:connector-curvature="0"
       style="fill:#ffffff;fill-opacity:1;fill-rule:nonzero;stroke:none;stroke-width:1.08333349"
       d="m 121.96894,831.71475 c 0,5.88969 -3.17533,10.66375 -7.09437,10.66375 -3.91903,0 -7.0975,-4.77406 -7.0975,-10.66375 0,-5.88652 3.17847,-10.66056 7.0975,-10.66056 3.91904,0 7.09437,4.77406 7.09437,10.66056"
       id="path4414" />
    <path
       inkscape:connector-curvature="0"
       style="fill:#211e1e;fill-opacity:1;fill-rule:nonzero;stroke:none;stroke-width:1.08333349"
       d="m 120.09681,836.18686 c 0,4.52294 -2.33937,8.19089 -5.22541,8.19089 -2.8797,0 -5.21901,-3.66795 -5.21901,-8.19089 0,-4.52933 2.33931,-8.19727 5.21901,-8.19727 2.88604,0 5.22541,3.66794 5.22541,8.19727"
       id="path4416" />
    <path
       style="fill:none;stroke:#211e1e;stroke-width:2.44106007;stroke-linecap:round;stroke-linejoin:miter;stroke-miterlimit:10;stroke-opacity:1"
       d="M -133.58558,910.4803"
       id="path3181" />
  </g>
</svg>
