<?xml version="1.0" encoding="UTF-8" standalone="no"?>
<svg
   xmlns:dc="http://purl.org/dc/elements/1.1/"
   xmlns:cc="http://creativecommons.org/ns#"
   xmlns:rdf="http://www.w3.org/1999/02/22-rdf-syntax-ns#"
   xmlns:svg="http://www.w3.org/2000/svg"
   xmlns="http://www.w3.org/2000/svg"
   xmlns:sodipodi="http://sodipodi.sourceforge.net/DTD/sodipodi-0.dtd"
   xmlns:inkscape="http://www.inkscape.org/namespaces/inkscape"
   id="1f25bdcd-7634-4f22-b969-b7777c970fa9"
   data-name="Layer 1"
   viewBox="0 0 600 279.99998"
   version="1.1"
   sodipodi:docname="LogoTypeNeg-Storehouse.svg"
   width="600"
   height="280"
   inkscape:export-filename="/home/dom/Dropbox/code/klf-monitor/images/storehouse-280.png"
   inkscape:export-xdpi="96"
   inkscape:export-ydpi="96"
   inkscape:version="0.92.1 r15371">
  <metadata
     id="metadata31">
    <rdf:RDF>
      <cc:Work
         rdf:about="">
        <dc:format>image/svg+xml</dc:format>
        <dc:type
           rdf:resource="http://purl.org/dc/dcmitype/StillImage" />
        <dc:title>Storehouse Logo</dc:title>
      </cc:Work>
    </rdf:RDF>
  </metadata>
  <sodipodi:namedview
     pagecolor="#ffffff"
     bordercolor="#666666"
     borderopacity="1"
     objecttolerance="10"
     gridtolerance="10"
     guidetolerance="10"
     inkscape:pageopacity="0"
     inkscape:pageshadow="2"
     inkscape:window-width="1882"
     inkscape:window-height="1080"
     id="namedview29"
     showgrid="false"
     inkscape:snap-page="true"
     fit-margin-top="5"
     fit-margin-left="0"
     fit-margin-right="0"
     fit-margin-bottom="5"
     inkscape:zoom="0.93338095"
     inkscape:cx="258.90457"
     inkscape:cy="-64.322067"
     inkscape:window-x="38"
     inkscape:window-y="0"
     inkscape:window-maximized="1"
     inkscape:current-layer="1f25bdcd-7634-4f22-b969-b7777c970fa9" />
  <defs
     id="defs4">
    <style
       id="style2">.\31 accb80c-3889-4c3a-8d08-c955c065a7a4{fill:#fff;}</style>
  </defs>
  <title
     id="title6">Storehouse Logo</title>
  <g
     id="g4556"
     transform="matrix(2.3622047,0,0,2.3622047,4.7244125,65.000001)">
    <rect
       ry="10.227273"
       rx="10.227273"
       y="0"
       x="0"
       height="63.5"
       width="250"
       id="rect4508"
       style="opacity:1;fill:#ec7769;fill-opacity:1;fill-rule:nonzero;stroke:none;stroke-width:3.76641321;stroke-linecap:round;stroke-linejoin:round;stroke-miterlimit:10;stroke-dasharray:none;stroke-dashoffset:0;stroke-opacity:1" />
    <path
       id="path8"
       d="m 35.32,37.16 a 10.16,10.16 0 0 1 -4.09,8.51 15.8,15.8 0 0 1 -9.91,3.14 10.21,10.21 0 0 1 -6.47,-2 q -2.55,-2 -2.83,-3.39 a 12.75,12.75 0 0 1 2.63,-4.14 8.88,8.88 0 0 1 3.64,-2.8 q 2.86,1.85 5.32,8.23 3.64,-0.11 3.64,-4 a 11.46,11.46 0 0 0 -1.71,-5.24 50.91,50.91 0 0 0 -3.72,-5.82 41.71,41.71 0 0 1 -3.72,-6.1 13.67,13.67 0 0 1 -1.71,-6 7.83,7.83 0 0 1 3.44,-6.72 13,13 0 0 1 7.76,-2.46 10.69,10.69 0 0 1 6.69,1.85 5.29,5.29 0 0 1 2.38,4.2 8.22,8.22 0 0 1 -1.79,4.82 20.76,20.76 0 0 1 -3.58,3.92 l -1.79,1.46 q 0.67,0.9 1.62,2.3 a 41.48,41.48 0 0 1 2.58,4.76 13.44,13.44 0 0 1 1.62,5.48 z M 31,18.79 A 8.33,8.33 0 0 0 32.41,17 4.2,4.2 0 0 0 33,14.84 2.26,2.26 0 0 0 31.66,12.91 6.27,6.27 0 0 0 28.44,12.13 5.4,5.4 0 0 0 25.3,13 a 2.5,2.5 0 0 0 -1.26,2.07 6.35,6.35 0 0 0 0.81,2.8 19,19 0 0 0 1.6,2.66 l 0.84,1.06 A 13.94,13.94 0 0 0 29.05,20.41 20.55,20.55 0 0 0 31,18.79 Z"
       class="1accb80c-3889-4c3a-8d08-c955c065a7a4"
       inkscape:connector-curvature="0"
       style="fill:#ffffff" />
    <path
       id="path10"
       d="m 56.26,24 a 10,10 0 0 1 -1,3.25 38.86,38.86 0 0 0 -4,-0.22 h -1 q -2.58,12.49 -2.58,15.57 0,1.62 0.7,1.62 a 14.32,14.32 0 0 0 3.72,-1.4 l 1,1.85 q -5,4.14 -9.24,4.14 a 4.42,4.42 0 0 1 -3.22,-1.23 4.37,4.37 0 0 1 -1.26,-3.28 25.66,25.66 0 0 1 0.48,-4.62 q 0.47,-2.58 1.32,-6.3 0.85,-3.72 1.23,-6 -2.07,0.17 -3.08,0.34 A 11.53,11.53 0 0 1 39.22,25.9 8.6,8.6 0 0 1 39.41,24 h 3.53 a 39.1,39.1 0 0 0 0.45,-5.71 l -0.06,-1.74 v -0.17 a 25.22,25.22 0 0 1 8.23,-1.51 14.67,14.67 0 0 1 0.22,2.8 38.73,38.73 0 0 1 -1,6.33 h 5.43 z"
       class="1accb80c-3889-4c3a-8d08-c955c065a7a4"
       inkscape:connector-curvature="0"
       style="fill:#ffffff" />
    <path
       id="path12"
       d="m 63.26,48.8 a 7.33,7.33 0 0 1 -6,-2.72 Q 55,43.37 55,38.5 a 17.42,17.42 0 0 1 3.33,-10.7 10.84,10.84 0 0 1 9.21,-4.48 l 2,0.11 a 4.48,4.48 0 0 1 2.13,-0.5 q 4.42,0 4.42,8.34 a 28.83,28.83 0 0 0 4.65,-0.62 l 0.9,-0.22 0.36,2.19 A 25.9,25.9 0 0 1 77,34 l -1.12,0.22 A 23.88,23.88 0 0 1 71.6,44.46 10,10 0 0 1 63.26,48.8 Z m 3,-4.82 q 2.35,0 4.23,-3 a 20.14,20.14 0 0 0 2.6,-6.38 q -6,0 -6,-4.48 a 7.88,7.88 0 0 1 0.73,-3.36 L 68.1,26.2 a 1.25,1.25 0 0 0 -0.56,-0.11 0.92,0.92 0 0 0 -0.5,0.11 q -1.4,0.9 -2.63,4.2 a 21.55,21.55 0 0 0 -1.23,7.56 Q 63.2,44 66.28,44 Z"
       class="1accb80c-3889-4c3a-8d08-c955c065a7a4"
       inkscape:connector-curvature="0"
       style="fill:#ffffff" />
    <path
       id="path14"
       d="m 78.66,48.3 h -0.39 a 11,11 0 0 1 -0.11,-2 61.88,61.88 0 0 1 1.51,-8.6 76.11,76.11 0 0 0 1.51,-8 6.51,6.51 0 0 0 -1.57,-3.81 l -0.5,-0.67 0.06,-0.73 a 39.87,39.87 0 0 1 9.69,-0.84 10,10 0 0 1 0.67,4.09 13.25,13.25 0 0 1 2.57,-2.74 6.16,6.16 0 0 1 4,-1.68 q 3,0 3,5.26 l -0.76,0.87 a 11,11 0 0 1 -1.9,1.48 7.14,7.14 0 0 1 -2.77,1.18 12.8,12.8 0 0 1 -1,-1.51 q -0.9,-1.51 -1.34,-1.51 A 6.07,6.07 0 0 0 89,30.77 q -2.58,11.59 -2.58,15 0,1.23 0.06,1.74 -2,0.79 -7.82,0.79 z"
       class="1accb80c-3889-4c3a-8d08-c955c065a7a4"
       inkscape:connector-curvature="0"
       style="fill:#ffffff" />
    <path
       id="path16"
       d="m 97.7,38.44 q 0,-7 4.23,-11.06 a 13.5,13.5 0 0 1 9.6,-4.06 8.71,8.71 0 0 1 5.47,1.63 5.19,5.19 0 0 1 2.13,4.34 7.45,7.45 0 0 1 -1.37,4.56 9.58,9.58 0 0 1 -3.33,2.86 25.37,25.37 0 0 1 -7.28,2.46 l -1.34,0.17 q 0.39,5.26 4.31,5.26 a 7,7 0 0 0 2.86,-0.67 10.93,10.93 0 0 0 2.35,-1.34 l 0.84,-0.67 1.34,1.79 a 9.09,9.09 0 0 1 -1.79,1.62 24.49,24.49 0 0 1 -2.56,1.67 14.48,14.48 0 0 1 -7.16,1.8 7.46,7.46 0 0 1 -6.1,-2.74 q -2.2,-2.74 -2.2,-7.62 z m 12.54,-4.26 a 7.17,7.17 0 0 0 1.68,-4.93 q 0,-3 -1.79,-3 -2.13,0 -3.28,3.61 a 22.35,22.35 0 0 0 -1.15,6.75 7.59,7.59 0 0 0 4.54,-2.42 z"
       class="1accb80c-3889-4c3a-8d08-c955c065a7a4"
       inkscape:connector-curvature="0"
       style="fill:#ffffff" />
    <path
       id="path18"
       d="m 126.82,11.17 a 7.32,7.32 0 0 0 -0.34,-2.63 25.19,25.19 0 0 1 8.24,-1.54 4.12,4.12 0 0 1 0.5,2.58 q 0,3.7 -3.14,17 4.54,-3.3 8,-3.3 a 3.9,3.9 0 0 1 3.22,1.34 5.47,5.47 0 0 1 1.09,3.56 33.32,33.32 0 0 1 -1.29,7.22 33.72,33.72 0 0 0 -1.29,6.86 q 0,1.85 0.45,1.85 a 8.27,8.27 0 0 0 2.35,-1 l 0.67,-0.34 1,2 q -0.5,0.45 -1.34,1.12 a 19.24,19.24 0 0 1 -3.08,1.79 9.31,9.31 0 0 1 -4.12,1.12 3.9,3.9 0 0 1 -3,-1.2 4.58,4.58 0 0 1 -1.12,-3.25 39.7,39.7 0 0 1 1.26,-7.45 42.57,42.57 0 0 0 1.26,-6.83 1.16,1.16 0 0 0 -1.18,-1.43 7.87,7.87 0 0 0 -3.64,1.23 q -3.08,13.55 -3.08,17.58 -2.35,0.9 -8,0.9 -0.06,-1 -0.06,-1.68 0,-2.41 3.33,-16.46 3.33,-14.05 3.31,-19.04 z"
       class="1accb80c-3889-4c3a-8d08-c955c065a7a4"
       inkscape:connector-curvature="0"
       style="fill:#ffffff" />
    <path
       id="path20"
       d="m 155.88,48.8 a 7.33,7.33 0 0 1 -6,-2.72 q -2.18,-2.72 -2.18,-7.59 a 17.42,17.42 0 0 1 3.3,-10.69 10.84,10.84 0 0 1 9.21,-4.48 l 2,0.11 a 4.48,4.48 0 0 1 2.13,-0.5 q 4.42,0 4.42,8.34 a 28.82,28.82 0 0 0 4.65,-0.62 l 0.9,-0.22 0.34,2.18 a 25.9,25.9 0 0 1 -5,1.4 l -1.12,0.22 a 23.88,23.88 0 0 1 -4.31,10.22 10,10 0 0 1 -8.34,4.35 z m 3,-4.82 q 2.35,0 4.23,-3 a 20.14,20.14 0 0 0 2.6,-6.38 q -6,0 -6,-4.48 a 7.86,7.86 0 0 1 0.73,-3.36 l 0.28,-0.56 a 1.25,1.25 0 0 0 -0.56,-0.11 0.92,0.92 0 0 0 -0.5,0.11 q -1.4,0.9 -2.63,4.2 a 21.55,21.55 0 0 0 -1.23,7.56 q 0.03,6.04 3.11,6.04 z"
       class="1accb80c-3889-4c3a-8d08-c955c065a7a4"
       inkscape:connector-curvature="0"
       style="fill:#ffffff" />
    <path
       id="path22"
       d="m 170.84,43.9 a 39.39,39.39 0 0 1 1.46,-8.18 44.8,44.8 0 0 0 1.46,-7.11 q 0,-1.31 -2,-3.5 l 0.06,-0.73 a 51.57,51.57 0 0 1 10,-0.78 8.36,8.36 0 0 1 0.28,2.63 44,44 0 0 1 -1.57,8.12 46.73,46.73 0 0 0 -1.53,7.73 q 0,1.51 1.12,1.51 a 8,8 0 0 0 3.75,-1.18 q 0.22,-1.34 1.12,-5.15 2,-9 2,-12.82 2,-0.78 7.06,-0.78 h 1.06 a 64,64 0 0 1 -1.57,10.28 79.63,79.63 0 0 0 -1.57,9 q 0,1.32 0.56,1.32 a 19.15,19.15 0 0 0 3.19,-1.34 l 1.06,1.79 q -5,4.14 -8.74,4.14 a 4.74,4.74 0 0 1 -3.05,-1 3.73,3.73 0 0 1 -1.43,-2.63 q -4.54,3.7 -8.23,3.7 a 4.31,4.31 0 0 1 -3.22,-1.29 5,5 0 0 1 -1.27,-3.73 z"
       class="1accb80c-3889-4c3a-8d08-c955c065a7a4"
       inkscape:connector-curvature="0"
       style="fill:#ffffff" />
    <path
       id="path24"
       d="m 215.64,40.8 a 6.83,6.83 0 0 1 -3.11,5.77 11.81,11.81 0 0 1 -7.08,2.24 10.55,10.55 0 0 1 -6.3,-1.68 q -2.32,-1.68 -2.32,-3 0,-0.79 2,-2.55 a 9.45,9.45 0 0 1 3.3,-2.16 14.68,14.68 0 0 1 4.55,6.58 q 2.07,-0.17 2.07,-2 0,-2.58 -4.54,-7.31 -4.54,-4.73 -4.54,-7.53 a 4.83,4.83 0 0 1 2.52,-4.34 11.44,11.44 0 0 1 6.08,-1.54 9.31,9.31 0 0 1 5.35,1.26 4,4 0 0 1 1.79,3.46 q 0,2.16 -3.42,6 l 1,1 a 13.31,13.31 0 0 1 1.62,2.44 6.9,6.9 0 0 1 1.03,3.36 z m -3,-12.77 q 0,-2 -2.69,-2 a 3.92,3.92 0 0 0 -2.13,0.53 1.48,1.48 0 0 0 -0.84,1.2 q 0,1.23 2.46,3.47 l 0.82,0.77 q 2.35,-2 2.35,-4 z"
       class="1accb80c-3889-4c3a-8d08-c955c065a7a4"
       inkscape:connector-curvature="0"
       style="fill:#ffffff" />
    <path
       id="path26"
       d="m 218,38.44 q 0,-7 4.23,-11.06 a 13.5,13.5 0 0 1 9.6,-4.06 8.7,8.7 0 0 1 5.43,1.62 5.19,5.19 0 0 1 2.13,4.34 7.44,7.44 0 0 1 -1.39,4.57 9.57,9.57 0 0 1 -3.33,2.86 25.36,25.36 0 0 1 -7.28,2.46 l -1.34,0.17 q 0.39,5.26 4.31,5.26 a 7.05,7.05 0 0 0 2.86,-0.67 10.91,10.91 0 0 0 2.35,-1.34 l 0.84,-0.67 1.34,1.79 a 9.06,9.06 0 0 1 -1.75,1.62 24.38,24.38 0 0 1 -2.56,1.67 14.48,14.48 0 0 1 -7.11,1.79 7.46,7.46 0 0 1 -6.1,-2.74 Q 218,43.32 218,38.44 Z m 12.54,-4.26 a 7.17,7.17 0 0 0 1.68,-4.93 q 0,-3 -1.79,-3 -2.13,0 -3.28,3.61 a 22.35,22.35 0 0 0 -1.15,6.74 7.59,7.59 0 0 0 4.53,-2.41 z"
       class="1accb80c-3889-4c3a-8d08-c955c065a7a4"
       inkscape:connector-curvature="0"
       style="fill:#ffffff" />
  </g>
</svg>
