<?xml version="1.0" encoding="UTF-8" standalone="no"?>
<!-- Created with Inkscape (http://www.inkscape.org/) -->

<svg
   xmlns:dc="http://purl.org/dc/elements/1.1/"
   xmlns:cc="http://creativecommons.org/ns#"
   xmlns:rdf="http://www.w3.org/1999/02/22-rdf-syntax-ns#"
   xmlns:svg="http://www.w3.org/2000/svg"
   xmlns="http://www.w3.org/2000/svg"
   xmlns:sodipodi="http://sodipodi.sourceforge.net/DTD/sodipodi-0.dtd"
   xmlns:inkscape="http://www.inkscape.org/namespaces/inkscape"
   width="572.85028"
   height="280"
   viewBox="0 0 151.56663 74.083331"
   version="1.1"
   id="svg1703"
   inkscape:version="0.92.1 r15371"
   sodipodi:docname="st.svg">
  <defs
     id="defs1697" />
  <sodipodi:namedview
     id="base"
     pagecolor="#ffffff"
     bordercolor="#666666"
     borderopacity="1.0"
     inkscape:pageopacity="0.0"
     inkscape:pageshadow="2"
     inkscape:zoom="0.35"
     inkscape:cx="-231.90627"
     inkscape:cy="46.973781"
     inkscape:document-units="mm"
     inkscape:current-layer="layer1"
     showgrid="false"
     fit-margin-top="5"
     fit-margin-left="5"
     fit-margin-right="5"
     fit-margin-bottom="5"
     inkscape:window-width="1882"
     inkscape:window-height="1080"
     inkscape:window-x="38"
     inkscape:window-y="0"
     inkscape:window-maximized="1"
     units="px" />
  <metadata
     id="metadata1700">
    <rdf:RDF>
      <cc:Work
         rdf:about="">
        <dc:format>image/svg+xml</dc:format>
        <dc:type
           rdf:resource="http://purl.org/dc/dcmitype/StillImage" />
        <dc:title />
      </cc:Work>
    </rdf:RDF>
  </metadata>
  <g
     inkscape:label="Layer 1"
     inkscape:groupmode="layer"
     id="layer1"
     transform="translate(-86.034187,-122.97593)">
    <g
       transform="matrix(1.2592218,0,0,1.2592218,-361.74634,307.81835)"
       id="g1714">
      <path
         inkscape:connector-curvature="0"
         id="path1592"
         transform="scale(0.26458334)"
         d="m 1511.4473,-522.91797 c -13.3431,-9e-5 -24.1599,9.1177 -24.1602,20.36524 v 15.32421 c 2e-4,11.5981 10.8171,21.0001 24.1602,21 h 44.4843 0.2071 v 0.01 c 5.0595,0.11225 9.1036,4.24394 9.1074,9.30469 0,5.0615 -4.0471,9.19437 -9.1074,9.30664 v 0.008 h -0.2071 -60.6054 l -12.9336,21.54883 h 82.834 0.02 a 30.588503,30.588503 0 0 0 25.5137,-13.74805 11.676543,14.055183 0 0 1 -1.5274,0.13867 11.676543,14.055183 0 0 1 -11.6777,-14.05664 11.676543,14.055183 0 0 1 11.6777,-14.05468 11.676543,14.055183 0 0 1 4.9649,1.35351 30.588503,30.588503 0 0 0 -28.9512,-20.81055 h -0.02 -46.1172 c -4.2315,-5e-4 -7.6616,-3.43064 -7.6621,-7.6621 -6e-4,-4.23226 3.4299,-7.66357 7.6621,-7.66407 l 48.1445,0.002 12.2227,-20.36524 z"
         style="opacity:1;fill:#275b86;fill-opacity:1;stroke-width:0.99999994" />
      <path
         sodipodi:nodetypes="sssccsssssccscscccccccccccczsz"
         style="opacity:1;fill:#b29170;fill-opacity:1;stroke-width:0.26458332"
         d="m 416.76872,-96.461882 c -13.19195,-1.01691 -23.30508,-3.48037 -31.94273,-7.780948 -7.3647,-3.6668 -11.8282,-8.4325 -12.70793,-13.5683 -0.97038,-5.66504 3.28615,-11.55559 11.75208,-16.26354 1.81777,-1.01088 6.56975,-3.06295 6.72752,-2.90519 0.0625,0.0625 -0.92914,0.74916 -2.20353,1.52602 -2.73254,1.66574 -6.71854,5.52824 -7.80496,7.56315 -1.10463,2.06902 -1.61614,4.40839 -1.40977,6.44754 1.28888,12.73555 26.42344,22.629668 55.58098,21.879228 8.82914,-0.22724 18.05408,-1.427138 23.67846,-3.079868 2.11886,-0.62263 1.11716,0.0583 -1.50523,1.02325 -5.58262,2.054178 -12.52425,3.660218 -19.65969,4.548528 -4.18558,0.52108 -16.79371,0.89623 -20.5052,0.61013 z m 4.04753,-30.940698 c -5.31843,-6.81726 -0.41082,-10.97854 4.31399,-10.98375 5.22956,-0.006 10.51415,5.23027 2.45506,12.11757 l 2.63584,3.47773 c 1.0255,-0.78283 0.82143,-2.13362 1.02577,-3.47772 l 4.73751,-1e-5 c -0.1961,3.15468 -0.82634,4.90307 -2.83971,7.33508 l 4.70484,6.20756 h -5.9097 l -2.05787,-2.71515 c -11.89969,8.28591 -21.25468,-5.8259 -9.06573,-11.96131 z m 6.35478,8.38449 -3.65911,-4.82784 c -6.45771,3.4748 -0.65083,9.64656 3.65911,4.82784 z m -2.04552,-15.74252 c -3.92587,0 -0.52532,5.24643 10e-6,5.24643 0.77847,0 3.92586,-5.24643 -10e-6,-5.24643 z"
         id="path1586"
         inkscape:connector-curvature="0" />
      <path
         sodipodi:nodetypes="cccccccccc"
         inkscape:connector-curvature="0"
         id="path1584"
         d="m 438.17396,-132.96684 h -9.64103 l 3.234,-5.38845 22.96711,1e-5 -3.23413,5.38845 -7.16494,-1e-5 -10e-6,20.24071 h -6.16104 l 10e-6,-20.24071 z"
         style="opacity:1;fill:#275b86;fill-opacity:1;stroke-width:0.26458332" />
    </g>
  </g>
</svg>
