<?xml version="1.0" encoding="UTF-8" standalone="no"?>
<!-- Created with Inkscape (http://www.inkscape.org/) -->

<svg
   xmlns:dc="http://purl.org/dc/elements/1.1/"
   xmlns:cc="http://creativecommons.org/ns#"
   xmlns:rdf="http://www.w3.org/1999/02/22-rdf-syntax-ns#"
   xmlns:svg="http://www.w3.org/2000/svg"
   xmlns="http://www.w3.org/2000/svg"
   xmlns:sodipodi="http://sodipodi.sourceforge.net/DTD/sodipodi-0.dtd"
   xmlns:inkscape="http://www.inkscape.org/namespaces/inkscape"
   version="1.1"
   id="svg2"
   xml:space="preserve"
   width="640"
   height="280"
   viewBox="0 0 640 280"
   sodipodi:docname="WSU.svg"
   inkscape:version="0.92.1 r15371"
   inkscape:export-filename="/home/dom/Dropbox/code/klf-monitor/images/wsu-280.png"
   inkscape:export-xdpi="96"
   inkscape:export-ydpi="96"><metadata
     id="metadata8"><rdf:RDF><cc:Work
         rdf:about=""><dc:format>image/svg+xml</dc:format><dc:type
           rdf:resource="http://purl.org/dc/dcmitype/StillImage" /><dc:title /></cc:Work></rdf:RDF></metadata><defs
     id="defs6" /><sodipodi:namedview
     pagecolor="#ffffff"
     bordercolor="#666666"
     borderopacity="1"
     objecttolerance="10"
     gridtolerance="10"
     guidetolerance="10"
     inkscape:pageopacity="0"
     inkscape:pageshadow="2"
     inkscape:window-width="1882"
     inkscape:window-height="1080"
     id="namedview4"
     showgrid="false"
     inkscape:zoom="0.60608223"
     inkscape:cx="47.209263"
     inkscape:cy="-55.868316"
     inkscape:window-x="38"
     inkscape:window-y="0"
     inkscape:window-maximized="1"
     inkscape:current-layer="g10" /><g
     id="g10"
     inkscape:groupmode="layer"
     inkscape:label="ink_ext_XXXXXX"
     transform="matrix(1.3333333,0,0,-1.3333333,0,280)"><g
       id="g4795"
       transform="matrix(2.0831627,0,0,2.0831627,70.024275,30)"><path
         d="m 55.3684,22.7207 c -0.3493,0 -0.6321,0.2832 -0.6321,0.6328 0,0.3477 0.2828,0.6309 0.6321,0.6309 0.3488,0 0.6316,-0.2832 0.6316,-0.6309 0,-0.3496 -0.2828,-0.6328 -0.6316,-0.6328 v 0"
         style="fill:#ffffff;fill-opacity:1;fill-rule:nonzero;stroke:none;stroke-width:0.1"
         id="path14"
         inkscape:connector-curvature="0" /><path
         d="m 55.3684,25.248 c -0.3493,0 -0.6321,0.2833 -0.6321,0.6329 0,0.3476 0.2828,0.6308 0.6321,0.6308 0.3488,0 0.6316,-0.2832 0.6316,-0.6308 0,-0.3496 -0.2828,-0.6329 -0.6316,-0.6329 v 0"
         style="fill:#ffffff;fill-opacity:1;fill-rule:nonzero;stroke:none;stroke-width:0.1"
         id="path16"
         inkscape:connector-curvature="0" /><path
         d="m 55.3684,27.7754 c -0.3493,0 -0.6321,0.2832 -0.6321,0.6328 0,0.3496 0.2828,0.6309 0.6321,0.6309 0.3488,0 0.6316,-0.2813 0.6316,-0.6309 0,-0.3496 -0.2828,-0.6328 -0.6316,-0.6328 v 0"
         style="fill:#ffffff;fill-opacity:1;fill-rule:nonzero;stroke:none;stroke-width:0.1"
         id="path18"
         inkscape:connector-curvature="0" /><path
         d="m 55.3684,30.3027 c -0.3493,0 -0.6321,0.2832 -0.6321,0.6328 0,0.3477 0.2828,0.6309 0.6321,0.6309 0.3488,0 0.6316,-0.2832 0.6316,-0.6309 0,-0.3496 -0.2828,-0.6328 -0.6316,-0.6328 v 0"
         style="fill:#ffffff;fill-opacity:1;fill-rule:nonzero;stroke:none;stroke-width:0.1"
         id="path20"
         inkscape:connector-curvature="0" /><path
         d="m 55.3684,32.8301 c -0.3493,0 -0.6321,0.2832 -0.6321,0.6328 0,0.3496 0.2828,0.6309 0.6321,0.6309 0.3488,0 0.6316,-0.2813 0.6316,-0.6309 0,-0.3496 -0.2828,-0.6328 -0.6316,-0.6328 v 0"
         style="fill:#ffffff;fill-opacity:1;fill-rule:nonzero;stroke:none;stroke-width:0.1"
         id="path22"
         inkscape:connector-curvature="0" /><path
         d="m 55.3684,35.359 c -0.3493,0 -0.6321,0.282 -0.6321,0.6316 0,0.3489 0.2828,0.6309 0.6321,0.6309 0.3488,0 0.6316,-0.282 0.6316,-0.6309 0,-0.3496 -0.2828,-0.6316 -0.6316,-0.6316 v 0"
         style="fill:#ffffff;fill-opacity:1;fill-rule:nonzero;stroke:none;stroke-width:0.1"
         id="path24"
         inkscape:connector-curvature="0" /><path
         d="m 55.3684,37.8863 c -0.3493,0 -0.6321,0.2821 -0.6321,0.6317 0,0.3492 0.2828,0.6324 0.6321,0.6324 0.3488,0 0.6316,-0.2832 0.6316,-0.6324 0,-0.3496 -0.2828,-0.6317 -0.6316,-0.6317 v 0"
         style="fill:#ffffff;fill-opacity:1;fill-rule:nonzero;stroke:none;stroke-width:0.1"
         id="path26"
         inkscape:connector-curvature="0" /><path
         d="m 55.3684,40.4141 c -0.3493,0 -0.6321,0.2828 -0.6321,0.632 0,0.3484 0.2828,0.6316 0.6321,0.6316 0.3488,0 0.6316,-0.2832 0.6316,-0.6316 0,-0.3492 -0.2828,-0.632 -0.6316,-0.632 v 0"
         style="fill:#ffffff;fill-opacity:1;fill-rule:nonzero;stroke:none;stroke-width:0.1"
         id="path28"
         inkscape:connector-curvature="0" /><path
         d="m 55.3684,70.7422 c -0.3493,0 -0.6321,0.2832 -0.6321,0.632 0,0.3488 0.2828,0.6317 0.6321,0.6317 0.3488,0 0.6316,-0.2829 0.6316,-0.6317 0,-0.3488 -0.2828,-0.632 -0.6316,-0.632 v 0"
         style="fill:#ffffff;fill-opacity:1;fill-rule:nonzero;stroke:none;stroke-width:0.1"
         id="path30"
         inkscape:connector-curvature="0" /><path
         d="m 55.3684,42.9398 c -0.3493,0 -0.6321,0.2832 -0.6321,0.6325 0,0.3488 0.2828,0.6316 0.6321,0.6316 0.3488,0 0.6316,-0.2828 0.6316,-0.6316 0,-0.3493 -0.2828,-0.6325 -0.6316,-0.6325 v 0"
         style="fill:#ffffff;fill-opacity:1;fill-rule:nonzero;stroke:none;stroke-width:0.1"
         id="path32"
         inkscape:connector-curvature="0" /><path
         d="m 55.3684,45.468 c -0.3493,0 -0.6321,0.2824 -0.6321,0.6316 0,0.3488 0.2828,0.632 0.6321,0.632 0.3488,0 0.6316,-0.2832 0.6316,-0.632 0,-0.3492 -0.2828,-0.6316 -0.6316,-0.6316 v 0"
         style="fill:#ffffff;fill-opacity:1;fill-rule:nonzero;stroke:none;stroke-width:0.1"
         id="path34"
         inkscape:connector-curvature="0" /><path
         d="m 55.3684,47.9953 c -0.3493,0 -0.6321,0.2824 -0.6321,0.6313 0,0.3496 0.2828,0.6324 0.6321,0.6324 0.3488,0 0.6316,-0.2828 0.6316,-0.6324 0,-0.3489 -0.2828,-0.6313 -0.6316,-0.6313 v 0"
         style="fill:#ffffff;fill-opacity:1;fill-rule:nonzero;stroke:none;stroke-width:0.1"
         id="path36"
         inkscape:connector-curvature="0" /><path
         d="m 55.3684,50.5227 c -0.3493,0 -0.6321,0.2832 -0.6321,0.6316 0,0.3492 0.2828,0.632 0.6321,0.632 0.3488,0 0.6316,-0.2828 0.6316,-0.632 0,-0.3484 -0.2828,-0.6316 -0.6316,-0.6316 v 0"
         style="fill:#ffffff;fill-opacity:1;fill-rule:nonzero;stroke:none;stroke-width:0.1"
         id="path38"
         inkscape:connector-curvature="0" /><path
         d="m 55.3684,53.0496 c -0.3493,0 -0.6321,0.2832 -0.6321,0.6324 0,0.3489 0.2828,0.6321 0.6321,0.6321 0.3488,0 0.6316,-0.2832 0.6316,-0.6321 0,-0.3492 -0.2828,-0.6324 -0.6316,-0.6324 v 0"
         style="fill:#ffffff;fill-opacity:1;fill-rule:nonzero;stroke:none;stroke-width:0.1"
         id="path40"
         inkscape:connector-curvature="0" /><path
         d="m 55.3684,55.5777 c -0.3493,0 -0.6321,0.2821 -0.6321,0.6317 0,0.3492 0.2828,0.632 0.6321,0.632 0.3488,0 0.6316,-0.2828 0.6316,-0.632 0,-0.3496 -0.2828,-0.6317 -0.6316,-0.6317 v 0"
         style="fill:#ffffff;fill-opacity:1;fill-rule:nonzero;stroke:none;stroke-width:0.1"
         id="path42"
         inkscape:connector-curvature="0" /><path
         d="m 55.3684,58.1051 c -0.3493,0 -0.6321,0.2828 -0.6321,0.6316 0,0.3492 0.2828,0.6321 0.6321,0.6321 0.3488,0 0.6316,-0.2829 0.6316,-0.6321 0,-0.3488 -0.2828,-0.6316 -0.6316,-0.6316 v 0"
         style="fill:#ffffff;fill-opacity:1;fill-rule:nonzero;stroke:none;stroke-width:0.1"
         id="path44"
         inkscape:connector-curvature="0" /><path
         d="m 55.3684,60.6324 c -0.3493,0 -0.6321,0.2832 -0.6321,0.6317 0,0.3492 0.2828,0.6324 0.6321,0.6324 0.3488,0 0.6316,-0.2832 0.6316,-0.6324 0,-0.3485 -0.2828,-0.6317 -0.6316,-0.6317 v 0"
         style="fill:#ffffff;fill-opacity:1;fill-rule:nonzero;stroke:none;stroke-width:0.1"
         id="path46"
         inkscape:connector-curvature="0" /><path
         d="m 55.3684,63.1602 c -0.3493,0 -0.6321,0.2828 -0.6321,0.632 0,0.3484 0.2828,0.6316 0.6321,0.6316 0.3488,0 0.6316,-0.2832 0.6316,-0.6316 0,-0.3492 -0.2828,-0.632 -0.6316,-0.632 v 0"
         style="fill:#ffffff;fill-opacity:1;fill-rule:nonzero;stroke:none;stroke-width:0.1"
         id="path48"
         inkscape:connector-curvature="0" /><path
         d="m 55.3684,65.6875 c -0.3493,0 -0.6321,0.2828 -0.6321,0.632 0,0.3485 0.2828,0.6317 0.6321,0.6317 0.3488,0 0.6316,-0.2832 0.6316,-0.6317 0,-0.3492 -0.2828,-0.632 -0.6316,-0.632 v 0"
         style="fill:#ffffff;fill-opacity:1;fill-rule:nonzero;stroke:none;stroke-width:0.1"
         id="path50"
         inkscape:connector-curvature="0" /><path
         d="m 55.3684,68.2148 c -0.3493,0 -0.6321,0.2829 -0.6321,0.6321 0,0.3484 0.2828,0.6316 0.6321,0.6316 0.3488,0 0.6316,-0.2832 0.6316,-0.6316 0,-0.3492 -0.2828,-0.6321 -0.6316,-0.6321 v 0"
         style="fill:#ffffff;fill-opacity:1;fill-rule:nonzero;stroke:none;stroke-width:0.1"
         id="path52"
         inkscape:connector-curvature="0" /><path
         d="m 55.3684,7.54688 c -0.3493,0 -0.6321,0.2832 -0.6321,0.63281 0,0.34765 0.2828,0.63086 0.6321,0.63086 C 55.7172,8.81055 56,8.52734 56,8.17969 56,7.83008 55.7172,7.54688 55.3684,7.54688 v 0"
         style="fill:#ffffff;fill-opacity:1;fill-rule:nonzero;stroke:none;stroke-width:0.1"
         id="path54"
         inkscape:connector-curvature="0" /><path
         d="m 55.3684,10.0742 c -0.3493,0 -0.6321,0.2832 -0.6321,0.6328 0,0.3496 0.2828,0.6309 0.6321,0.6309 0.3488,0 0.6316,-0.2813 0.6316,-0.6309 0,-0.3496 -0.2828,-0.6328 -0.6316,-0.6328 v 0"
         style="fill:#ffffff;fill-opacity:1;fill-rule:nonzero;stroke:none;stroke-width:0.1"
         id="path56"
         inkscape:connector-curvature="0" /><path
         d="m 55.3684,12.6016 c -0.3493,0 -0.6321,0.2832 -0.6321,0.6328 0,0.3476 0.2828,0.6308 0.6321,0.6308 0.3488,0 0.6316,-0.2832 0.6316,-0.6308 0,-0.3496 -0.2828,-0.6328 -0.6316,-0.6328 v 0"
         style="fill:#ffffff;fill-opacity:1;fill-rule:nonzero;stroke:none;stroke-width:0.1"
         id="path58"
         inkscape:connector-curvature="0" /><path
         d="m 55.3684,15.1289 c -0.3493,0 -0.6321,0.2832 -0.6321,0.6328 0,0.3496 0.2828,0.6309 0.6321,0.6309 0.3488,0 0.6316,-0.2813 0.6316,-0.6309 0,-0.3496 -0.2828,-0.6328 -0.6316,-0.6328 v 0"
         style="fill:#ffffff;fill-opacity:1;fill-rule:nonzero;stroke:none;stroke-width:0.1"
         id="path60"
         inkscape:connector-curvature="0" /><path
         d="m 55.3684,0 c -0.3493,0 -0.6321,0.283203 -0.6321,0.632813 0,0.347656 0.2828,0.632817 0.6321,0.632817 C 55.7172,1.26563 56,0.980469 56,0.632813 56,0.283203 55.7172,0 55.3684,0 v 0"
         style="fill:#ffffff;fill-opacity:1;fill-rule:nonzero;stroke:none;stroke-width:0.1"
         id="path62"
         inkscape:connector-curvature="0" /><path
         d="m 55.3684,2.52734 c -0.3493,0 -0.6321,0.28321 -0.6321,0.63282 0,0.34961 0.2828,0.63086 0.6321,0.63086 C 55.7172,3.79102 56,3.50977 56,3.16016 56,2.81055 55.7172,2.52734 55.3684,2.52734 v 0"
         style="fill:#ffffff;fill-opacity:1;fill-rule:nonzero;stroke:none;stroke-width:0.1"
         id="path64"
         inkscape:connector-curvature="0" /><path
         d="m 55.3684,5.05664 c -0.3493,0 -0.6321,0.28125 -0.6321,0.63086 0,0.34961 0.2828,0.63086 0.6321,0.63086 C 55.7172,6.31836 56,6.03711 56,5.6875 56,5.33789 55.7172,5.05664 55.3684,5.05664 v 0"
         style="fill:#ffffff;fill-opacity:1;fill-rule:nonzero;stroke:none;stroke-width:0.1"
         id="path66"
         inkscape:connector-curvature="0" /><path
         d="m 55.3684,17.6563 c -0.3493,0 -0.6321,0.2832 -0.6321,0.6328 0,0.3496 0.2828,0.6308 0.6321,0.6308 0.3488,0 0.6316,-0.2812 0.6316,-0.6308 0,-0.3496 -0.2828,-0.6328 -0.6316,-0.6328 v 0"
         style="fill:#ffffff;fill-opacity:1;fill-rule:nonzero;stroke:none;stroke-width:0.1"
         id="path68"
         inkscape:connector-curvature="0" /><path
         d="m 55.3684,20.1836 c -0.3493,0 -0.6321,0.2832 -0.6321,0.6328 0,0.3496 0.2828,0.6309 0.6321,0.6309 0.3488,0 0.6316,-0.2813 0.6316,-0.6309 0,-0.3496 -0.2828,-0.6328 -0.6316,-0.6328 v 0"
         style="fill:#ffffff;fill-opacity:1;fill-rule:nonzero;stroke:none;stroke-width:0.1"
         id="path70"
         inkscape:connector-curvature="0" /><path
         d="m 30.3848,55.1848 -0.8985,-4.2496 -0.0437,-0.2606 c -0.5305,0.8891 -1.2656,1.75 -2.2192,2.5652 -1.0828,0.9258 -2.2386,1.9454 -3.1668,2.9336 -0.2398,0.2555 -0.4113,0.4911 -0.3996,0.9004 0.0168,0.609 0.5223,1.0961 1.1379,1.0961 0.491,0 0.9031,-0.2937 1.0531,-0.7078 0.109,-0.3016 -0.0312,-0.6437 -0.2738,-0.8168 C 24.9,56.1641 25.2141,55.1836 26.043,55.1836 Z m -5.3496,7.325 c -2.8926,0.3254 -6.1512,-1.4735 -6.6391,-4.4535 -0.3832,0.3144 -0.8656,0.5101 -1.3766,0.5101 l -6.5547,4e-4 c 1.1165,0.5281 2.2461,0.9551 3.3301,1.3016 1.7656,0.5636 3.3746,0.9035 4.5469,1.1179 l 1.4184,0.2438 0.4253,0.0797 c 0.5208,0.1172 0.6918,0.4847 0.7247,0.6269 0.1113,0.4824 -0.2098,0.9071 -0.7039,0.9324 -2.159,0.1118 -4.2305,0.0383 -6.1907,-0.2425 2.8449,0.8472 6.1934,1.198 10.102,1.2293 0.2262,-0.4934 0.5371,-0.9465 0.9176,-1.3461 z m -13.0418,-12.7813 1.2918,6.0598 0.4296,-0.0934 c 0.3426,-0.0851 0.3997,-0.3082 0.3426,-0.5758 l -1.1961,-5.5746 c -0.0859,-0.4105 -0.3672,-0.6148 -0.5996,-0.5726 -0.2558,0.0453 -0.3633,0.3719 -0.2683,0.7566 z m 5.8218,-0.2633 1.0293,4.7868 c 0.4336,-0.7778 1.0973,-1.5079 1.9836,-2.2188 0.2692,-0.2441 0.9141,-0.7918 1.5535,-1.3422 l 0.4497,-0.3887 c -1.9129,0.5758 -3.7461,0.075 -5.0161,-0.8371 z m 1.9336,-4.7191 c -0.1863,0.9234 0.5364,1.4465 1.2047,1.2441 0.3016,-0.0906 0.7551,-0.4105 1.2262,-0.9636 l 0.2195,-0.2828 c 0.4406,-0.5997 1.2977,-0.4016 1.4387,0.3261 l 0.6742,3.4774 c 0.3465,-0.5442 0.525,-1.1086 0.5067,-1.7629 -0.0129,-0.4727 -0.2344,-1.1934 -0.4192,-1.6125 -1.3113,-2.9828 -4.5238,-2.0438 -4.8508,-0.4258 z M 7.68281,55.1191 6.48633,49.5445 C 6.40156,49.134 6.12031,48.9297 5.88789,48.9719 5.63125,49.0172 5.52383,49.3438 5.61797,49.7285 l 1.29258,6.0598 0.42929,-0.0934 c 0.34297,-0.0851 0.39961,-0.3082 0.34297,-0.5758 z m 26.99809,-5.3906 1.2918,6.0598 0.4296,-0.0934 c 0.3426,-0.0851 0.3997,-0.3082 0.3426,-0.5758 l -1.1961,-5.5746 c -0.0855,-0.4105 -0.3672,-0.6148 -0.5996,-0.5726 -0.2558,0.0453 -0.3633,0.3719 -0.2683,0.7566 z M 49.1516,70.673 H 46.373 l -1.1566,4e-4 H 29.9695 c -0.4968,0 -1.0031,-0.0648 -1.5027,-0.1879 -1.8176,-0.4464 -3.5422,-1.6562 -4.4063,-3.2804 h -0.155 C 14.391,67.1266 6.54961,65.0734 2.36211,58.5695 H 1.06094 c -0.364846,0 -0.712893,-0.2824 -0.787893,-0.6394 L 0.0179688,56.7246 C -0.0820313,56.25 0.248047,55.8008 0.730859,55.7559 0.732813,55.7555 0.966797,55.7277 1.15156,55.6113 1.26641,55.5391 1.38555,55.434 1.30625,55.0938 L 0.430469,50.9426 c -0.898047,-4.2297 1.651561,-6.0653 3.741411,-6.0891 1.07187,-0.0117 2.14531,0.4367 2.96679,1.3531 1.90156,-1.9171 4.75083,-1.6871 6.37113,0.0204 0.7004,-0.6934 1.5312,-1.0864 2.3675,-1.2622 0.059,-1.0808 0.4696,-2.1812 1.2907,-3.182 2.8043,-3.4191 9.0918,-3.4523 12.0957,1.2469 0.6207,0.9707 1.0246,2.0152 1.1695,3.0953 0.7762,-0.8641 1.8395,-1.2602 2.7957,-1.2715 1.0746,-0.0117 2.1512,0.4391 2.9731,1.3594 2.116,-2.0816 5.6492,-1.743 7.1183,0.982 0.0524,0.0957 0.0969,0.2735 0.0969,0.3824 v 1.1582 c 0,0.8321 -0.9875,1.1438 -1.4656,0.4629 -0.2203,-0.3144 -1.1157,-0.5289 -0.8325,0.9395 l 1.2305,5.7289 c 0.432,1.807 -0.9641,2.7 -2.1726,2.7 L 29.4512,58.568 c -0.2078,0.8199 -0.5407,1.5015 -0.9641,2.055 0.4942,-0.1199 0.9942,-0.1832 1.4824,-0.1832 l 13.7496,-0.0011 0.6477,0.0011 1.1812,-0.0011 c 1.4469,-0.0125 2.4153,0.7933 2.8129,2.1992 0.1481,0.5254 -0.1632,0.9367 -0.7086,0.9367 H 44.875 43.6094 l -0.261,0.3902 1.1157,-3e-4 0.6472,7e-4 1.1809,-7e-4 c 1.4461,-0.0129 2.4156,0.7929 2.8133,2.1992 0.1484,0.525 -0.1629,0.9363 -0.709,0.9371 h -2.7774 -1.1562 -1.1492 c 0.1047,0.1406 0.2035,0.2863 0.2957,0.4375 l 1.6074,-0.0012 0.6492,0.0012 1.1789,-0.0012 c 1.4469,-0.0125 2.4176,0.7926 2.8156,2.1992 0.1485,0.525 -0.1632,0.9367 -0.7089,0.9367 v 0"
         style="fill:#f9b00f;fill-opacity:1;fill-rule:nonzero;stroke:none;stroke-width:0.1"
         id="path72"
         inkscape:connector-curvature="0" /><path
         d="m 17.0273,49.6324 c -0.1898,-0.9058 0.0418,-1.5465 0.4239,-1.9101 1.2301,1.8101 3.7504,2.7578 6.2922,1.3152 L 23.843,48.9746 23.0469,45.223 c 0,0 -0.1477,0.2008 -0.2504,0.3215 -0.5106,0.5985 -1.0914,1.061 -1.6102,1.2172 -1.2617,0.3809 -2.532,-0.6648 -2.2273,-2.1754 0.5246,-2.5965 4.8371,-3.2441 6.3777,0.261 0.2031,0.4625 0.4699,1.2925 0.4875,1.914 0.0367,1.3055 -0.5547,2.3024 -1.439,3.2231 -0.4438,0.4621 -2.4887,2.1676 -3.0219,2.6504 -1.6367,1.3066 -2.3344,2.5675 -2.3125,3.9375 0.0984,6.3004 9.289,6.8925 9.6933,1.1894 l 5.0586,0.0016 c 0.8223,0 1.5911,-0.8371 1.4016,-1.7121 L 33.9508,50.275 c -0.5613,-2.7094 2.0043,-2.5824 2.3937,-0.8242 l 1.1844,5.4633 c 0.3051,1.5062 -1.2879,1.6398 -1.2879,1.6398 l 0.259,1.2074 h 3.677 c 0.871,0 1.6597,-0.5738 1.3882,-1.7101 l -1.2336,-5.7465 c -0.4918,-2.5117 1.6657,-2.4453 2.2797,-1.5692 v -1.1582 c -1.3418,-2.489 -4.8398,-2.58 -6.4554,-0.03 -0.7079,-1.3114 -1.8356,-1.8996 -2.9176,-1.8875 -1.5742,0.0175 -3.686,1.3863 -2.9617,5.116 l 0.9824,4.6504 c 0.0894,0.3828 -0.2102,0.5644 -0.441,0.5644 l -4.7754,-0.0011 c 0.4847,0.346 0.816,1.0496 0.5629,1.7468 -0.2703,0.7473 -0.9957,1.2399 -1.8106,1.2399 -1.0515,0 -1.9133,-0.8414 -1.9426,-1.8864 -0.0027,-0.114 0.0063,-0.2324 0.0278,-0.3539 0.0652,-0.3609 0.2453,-0.748 0.589,-1.1136 0.9622,-1.0243 2.1457,-2.0672 3.2313,-2.995 3.4387,-2.9398 3.6797,-6.3562 1.8848,-9.1632 -2.7161,-4.2481 -8.345,-4.1559 -10.7942,-1.17 -0.8906,1.086 -1.2043,2.2715 -1.0945,3.3711 -1.1809,0.0743 -2.3996,0.5918 -3.2168,1.8821 -1.2375,-2.2938 -4.65548,-2.7239 -6.38126,0 C 6.39102,46.2359 5.26328,45.6477 4.18047,45.6594 2.60664,45.6773 0.425,47.0367 1.21875,50.7758 l 0.87383,4.1433 c 0.34687,1.4852 -1.285939,1.6387 -1.285939,1.6387 l 0.254299,1.2059 h 3.775 c 1.01758,0 1.52109,-0.7633 1.31133,-1.7332 L 4.89922,50.2746 C 4.37891,47.6156 6.91406,47.65 7.28711,49.4508 l 1.19141,5.4957 c 0.33203,1.4308 -1.29454,1.6074 -1.29454,1.6074 l 0.25821,1.2074 h 3.69261 c 0.775,0 1.5808,-0.7679 1.416,-1.5574 l -1.2703,-5.8992 c -0.5422,-2.7692 2.009,-2.6031 2.3949,-0.7969 l 1.1703,5.4371 c 0.3191,1.4324 -1.2894,1.6071 -1.2894,1.6071 l 0.255,1.2078 3.209,0.0011 c 0.8149,0 1.5754,-0.8394 1.3867,-1.7097 l -1.3797,-6.4188 v 0"
         style="fill:#231f20;fill-opacity:1;fill-rule:nonzero;stroke:none;stroke-width:0.1"
         id="path74"
         inkscape:connector-curvature="0" /><path
         d="m 29.9695,68.3102 c -1.2586,0 -2.3718,-0.6286 -3.0418,-1.5879 l -0.2453,-0.3508 h 0.9153 c 1.2586,0 2.3718,0.6281 3.0418,1.5875 l 0.2453,0.3512 z m 5.1582,0 c -1.2589,0 -2.3722,-0.6286 -3.0418,-1.5879 l -0.2461,-0.3508 h 0.9157 c 1.2586,0 2.3718,0.6281 3.0418,1.5875 l 0.2453,0.3512 z m 5.1582,0 c -1.2593,0 -2.3726,-0.6286 -3.0421,-1.5879 l -0.2454,-0.3508 h 0.9149 c 1.2586,0 2.3722,0.6281 3.0418,1.5875 l 0.2453,0.3512 z m -12.6882,-3.5688 -0.9153,4e-4 0.2453,-0.3512 c 0.67,-0.959 1.7832,-1.5879 3.0418,-1.5879 h 0.9153 l -0.2453,0.3512 c -0.67,0.9594 -1.7836,1.5875 -3.0418,1.5875 z m 5.1578,0 -0.9149,4e-4 0.2453,-0.3512 c 0.6696,-0.959 1.7829,-1.5879 3.0418,-1.5879 h 0.9153 l -0.245,0.3512 c -0.6703,0.9594 -1.7839,1.5875 -3.0425,1.5875 z m 5.1578,0 -0.9149,4e-4 0.2454,-0.3512 c 0.6695,-0.959 1.7828,-1.5879 3.0421,-1.5879 h 0.9149 l -0.2453,0.3512 c -0.67,0.9594 -1.7836,1.5875 -3.0422,1.5875 z M 7.05273,59.7297 C 10.8059,61.627 15.323,62.3383 20.1605,62.0891 19.9609,62.0656 13.4902,61.2383 8.79492,58.5664 H 3.38203 c 4.14141,5.9516 11.70197,7.7981 21.10237,7.7981 0.789,2.0625 3.234,3.5722 5.4851,3.5722 h 2.5254 c -0.034,-0.3027 -0.0941,-0.5972 -0.1801,-0.8808 0.7973,0.555 1.7672,0.8808 2.8129,0.8808 h 2.5246 c -0.0332,-0.3027 -0.0937,-0.5972 -0.1796,-0.8808 0.7976,0.555 1.7675,0.8808 2.8132,0.8808 h 3.3825 1.548 1.1566 2.7786 c -0.3161,-1.1183 -1.02,-1.6726 -2.1028,-1.6633 l -1.1836,0.0012 -0.6488,-0.0012 -2.0402,0.0012 C 42.7859,67.498 42.1965,66.8391 41.4746,66.3637 l 2.9883,8e-4 h 1.1562 l 2.7774,-8e-4 c -0.316,-1.1176 -1.0176,-1.6723 -2.1016,-1.6629 l -1.1836,0.0015 -0.6484,-0.0015 -2.9184,0.0015 c 0.6903,-0.4714 1.2543,-1.1125 1.6317,-1.864 h 0.5426 1.1562 l 2.7773,-4e-4 c -0.3164,-1.1176 -1.0175,-1.6723 -2.1011,-1.6633 l -1.1852,0.0016 -0.6472,-0.0016 -3.4329,0.0016 c -1.0457,0 -2.0156,0.3258 -2.8132,0.8816 0.0859,-0.2844 0.1464,-0.5781 0.1796,-0.8816 h -2.5246 c -1.0457,0 -2.0156,0.3258 -2.8129,0.8816 0.0856,-0.2844 0.1461,-0.5781 0.1801,-0.8816 h -2.5254 c -2.234,0 -4.6668,1.4875 -5.2715,3.5261 -7.7195,0 -13.5496,-1.1691 -17.64527,-4.9726 v 0"
         style="fill:#231f20;fill-opacity:1;fill-rule:nonzero;stroke:none;stroke-width:0.1"
         id="path76"
         inkscape:connector-curvature="0" /><path
         d="m 139.388,60.1027 v 7.0969 c 0,0.0684 0.056,0.1258 0.126,0.1258 h 4.679 c 0.07,0 0.126,-0.0574 0.126,-0.1258 v -0.9387 c 0,-0.0691 -0.056,-0.1257 -0.126,-0.1257 h -3.395 c -0.037,0 -0.069,-0.0313 -0.069,-0.0688 v -1.7098 c 0,-0.0371 0.032,-0.0683 0.069,-0.0683 h 3.134 c 0.068,0 0.125,-0.0574 0.125,-0.1262 V 63.223 c 0,-0.0687 -0.057,-0.1257 -0.125,-0.1257 h -3.134 c -0.037,0 -0.069,-0.0313 -0.069,-0.0684 v -1.7926 c 0,-0.0375 0.032,-0.0687 0.069,-0.0687 h 3.409 c 0.069,0 0.126,-0.0567 0.126,-0.1254 v -0.9395 c 0,-0.0683 -0.057,-0.1257 -0.126,-0.1257 h -4.693 c -0.07,0 -0.126,0.0574 -0.126,0.1257 z m -1.167,7.0969 v -0.9523 c 0,-0.0692 -0.057,-0.1262 -0.125,-0.1262 h -2.167 c -0.037,0 -0.069,-0.0313 -0.069,-0.0684 v -5.95 c 0,-0.0683 -0.056,-0.1257 -0.126,-0.1257 h -1.091 c -0.069,0 -0.125,0.0574 -0.125,0.1257 v 5.95 c 0,0.0371 -0.032,0.0684 -0.069,0.0684 h -2.166 c -0.07,0 -0.126,0.057 -0.126,0.1262 v 0.9523 c 0,0.0684 0.056,0.1258 0.126,0.1258 h 5.813 c 0.068,0 0.125,-0.0574 0.125,-0.1258 z m -8.001,-4.4082 -1.084,3.134 c -0.025,0.0691 -0.107,0.0691 -0.129,0 l -1.084,-3.134 c -0.018,-0.048 0.015,-0.0906 0.064,-0.0906 h 2.166 c 0.052,0 0.081,0.0426 0.067,0.0906 z m -1.838,4.534 h 1.379 c 0.049,0 0.099,-0.0352 0.117,-0.082 l 2.634,-7.0969 c 0.032,-0.084 -0.029,-0.1695 -0.118,-0.1695 h -1.084 c -0.05,0 -0.101,0.0347 -0.119,0.0816 l -0.559,1.4758 c -0.009,0.0226 -0.041,0.0445 -0.065,0.0445 h -3.004 c -0.025,0 -0.056,-0.0223 -0.065,-0.0445 l -0.547,-1.4754 c -0.018,-0.0461 -0.068,-0.082 -0.118,-0.082 h -1.085 c -0.09,0 -0.149,0.0855 -0.118,0.1695 l 2.635,7.0969 c 0.015,0.0468 0.067,0.082 0.117,0.082 z m -2.394,-0.1258 v -0.9523 c 0,-0.0692 -0.058,-0.1262 -0.125,-0.1262 h -2.167 c -0.037,0 -0.069,-0.0313 -0.069,-0.0684 v -5.95 c 0,-0.0683 -0.056,-0.1257 -0.126,-0.1257 h -1.09 c -0.069,0 -0.126,0.0574 -0.126,0.1257 v 5.95 c 0,0.0371 -0.032,0.0684 -0.069,0.0684 h -2.166 c -0.069,0 -0.126,0.057 -0.126,0.1262 v 0.9523 c 0,0.0684 0.057,0.1258 0.126,0.1258 h 5.813 c 0.067,0 0.125,-0.0574 0.125,-0.1258 z m -9.33,2.2801 c 0.795,0 1.737,-0.1082 2.472,-0.2981 0.059,-0.0144 0.1,-0.073 0.094,-0.1336 l -0.089,-0.9257 c -0.009,-0.0758 -0.078,-0.1278 -0.152,-0.111 -0.717,0.1582 -1.56,0.25 -2.297,0.25 -1.476,0 -1.697,-0.2812 -1.697,-1.2824 0,-0.6594 0.008,-0.9414 0.203,-1.1371 0.206,-0.2066 0.627,-0.3305 1.555,-0.5625 2.475,-0.6152 2.632,-1.0027 2.632,-2.8434 0,-1.6488 -0.509,-2.5968 -3.08,-2.5968 -0.88,0 -1.937,0.1625 -2.732,0.4757 -0.055,0.0227 -0.089,0.084 -0.077,0.1422 l 0.177,0.8871 c 0.015,0.0739 0.088,0.1184 0.161,0.0957 0.821,-0.2507 1.68,-0.3832 2.499,-0.3832 1.442,0 1.697,0.3598 1.697,1.3516 0,0.6285 -0.006,0.927 -0.219,1.1363 -0.22,0.2172 -0.668,0.3477 -1.621,0.5629 -2.258,0.5051 -2.551,0.9645 -2.551,2.9125 0,1.659 0.711,2.4598 3.025,2.4598 z m -10.638,-6.6883 -1.083,3.134 c -0.026,0.0691 -0.107,0.0691 -0.13,0 l -1.084,-3.134 c -0.016,-0.048 0.014,-0.0906 0.065,-0.0906 h 2.166 c 0.051,0 0.082,0.0426 0.066,0.0906 z m -1.837,4.534 h 1.378 c 0.049,0 0.1,-0.0352 0.118,-0.082 l 2.634,-7.0969 c 0.031,-0.084 -0.03,-0.1695 -0.119,-0.1695 h -1.085 c -0.049,0 -0.1,0.0347 -0.119,0.0816 l -0.558,1.4758 c -0.009,0.0226 -0.04,0.0445 -0.066,0.0445 h -3.004 c -0.024,0 -0.055,-0.0223 -0.064,-0.0445 l -0.547,-1.4754 c -0.017,-0.0461 -0.068,-0.082 -0.118,-0.082 h -1.085 c -0.09,0 -0.15,0.0855 -0.118,0.1695 l 2.635,7.0969 c 0.017,0.0468 0.067,0.082 0.118,0.082 z m -2.414,-0.1258 v -0.9523 c 0,-0.0692 -0.057,-0.1262 -0.126,-0.1262 h -2.1664 c -0.0364,0 -0.0672,-0.0313 -0.0672,-0.0684 v -5.95 c 0,-0.0683 -0.0586,-0.1257 -0.1262,-0.1257 h -1.0906 c -0.0715,0 -0.1262,0.0574 -0.1262,0.1257 v 5.95 c 0,0.0371 -0.032,0.0684 -0.0703,0.0684 h -2.1668 c -0.0676,0 -0.125,0.057 -0.125,0.1262 v 0.9523 c 0,0.0684 0.0574,0.1258 0.125,0.1258 h 5.8137 c 0.069,0 0.126,-0.0574 0.126,-0.1258 z m -9.0202,-7.0969 v 7.0969 c 0,0.0684 0.0578,0.1258 0.1274,0.1258 h 1.0906 c 0.0684,0 0.125,-0.0574 0.125,-0.1258 v -7.0969 c 0,-0.0683 -0.0566,-0.1257 -0.125,-0.1257 h -1.0906 c -0.0696,0 -0.1274,0.0574 -0.1274,0.1257 z m -8.2683,7.0969 c 0,0.0684 0.0554,0.1258 0.1258,0.1258 h 1.091 c 0.0683,0 0.1257,-0.0574 0.1257,-0.1258 v -2.8152 c 0,-0.0375 0.0305,-0.0688 0.0676,-0.0688 h 3.0625 c 0.0391,0 0.0703,0.0313 0.0703,0.0688 v 2.8152 c 0,0.0684 0.0547,0.1258 0.1258,0.1258 h 1.0903 c 0.0679,0 0.1257,-0.0574 0.1257,-0.1258 v -7.0969 c 0,-0.0683 -0.0578,-0.1257 -0.1257,-0.1257 h -1.0903 c -0.0711,0 -0.1258,0.0574 -0.1258,0.1257 v 2.9536 c 0,0.0375 -0.0312,0.0687 -0.0703,0.0687 h -3.0625 c -0.0371,0 -0.0676,-0.0312 -0.0676,-0.0687 v -2.9536 c 0,-0.0683 -0.0574,-0.1257 -0.1257,-0.1257 h -1.091 c -0.0704,0 -0.1258,0.0574 -0.1258,0.1257 z m -1.8364,-0.0863 -0.089,-0.8992 c -0.0071,-0.0723 -0.0742,-0.1243 -0.1457,-0.1114 -0.6133,0.1055 -1.4364,0.1703 -1.9723,0.1703 -1.1527,0 -1.5449,-0.2613 -1.5449,-1.1582 v -2.9269 c 0,-0.8973 0.3922,-1.1586 1.5449,-1.1586 0.5359,0 1.359,0.0656 1.9723,0.1715 0.0715,0.0117 0.1386,-0.0395 0.1457,-0.1125 l 0.089,-0.8988 C 82.65,60.127 82.6059,60.0668 82.5449,60.0539 81.7922,59.893 81.0543,59.8391 80.4238,59.8391 c -2.0738,0 -2.8742,0.741 -2.8742,2.2656 v 3.0926 c 0,1.525 0.8004,2.266 2.8742,2.266 0.6305,0 1.3684,-0.0539 2.1211,-0.2149 0.061,-0.0129 0.1051,-0.0726 0.0992,-0.1351 z m -8.5859,-7.0106 v 7.0969 c 0,0.0684 0.057,0.1258 0.1258,0.1258 h 1.0898 c 0.0692,0 0.1262,-0.0574 0.1262,-0.1258 v -7.0969 c 0,-0.0683 -0.057,-0.1257 -0.1262,-0.1257 H 74.184 c -0.0688,0 -0.1258,0.0574 -0.1258,0.1257 z M 70.3141,59.977 h -1.6063 c -0.0558,0 -0.1098,0.0425 -0.1226,0.0972 l -1.7493,7.541 c -0.0179,0.0786 -0.1148,0.0786 -0.1328,0 l -1.7488,-7.541 C 64.941,60.0195 64.8883,59.977 64.8313,59.977 h -1.6051 c -0.0551,0 -0.1078,0.0406 -0.1223,0.0945 l -2.3949,9.1121 c -0.0211,0.0812 0.0383,0.1574 0.1223,0.1574 h 1.0734 c 0.0555,0 0.1086,-0.0406 0.1223,-0.0937 l 1.9347,-7.4364 c 0.0203,-0.0769 0.1164,-0.0761 0.1344,0.0016 l 1.7559,7.4316 c 0.0132,0.0547 0.066,0.0969 0.1222,0.0969 h 1.5906 c 0.0563,0 0.1098,-0.0422 0.1231,-0.0969 l 1.7559,-7.4316 c 0.0179,-0.0777 0.1132,-0.0785 0.1332,-0.0016 l 1.9363,7.4364 c 0.0137,0.0531 0.066,0.0937 0.1207,0.0937 h 1.0738 c 0.0844,0 0.1434,-0.0762 0.1215,-0.1574 L 70.4352,60.0715 C 70.4211,60.0176 70.3691,59.977 70.3141,59.977 Z M 124.341,49.8402 v -2.0746 c 0,-0.0683 -0.056,-0.1254 -0.126,-0.1254 h -1.091 c -0.068,0 -0.126,0.0571 -0.126,0.1254 v 2.0746 c 0,0.0067 -0.004,0.0262 -0.008,0.0325 l -2.628,4.9312 c -0.045,0.0863 0.013,0.1844 0.112,0.1844 h 1.107 c 0.043,0 0.091,-0.0289 0.112,-0.0672 l 1.908,-3.666 c 0.03,-0.0555 0.094,-0.0555 0.123,0 l 1.91,3.666 c 0.021,0.0383 0.068,0.0672 0.111,0.0672 h 1.107 c 0.099,0 0.158,-0.0977 0.111,-0.1844 l -2.614,-4.9312 c -0.003,-0.0059 -0.008,-0.0254 -0.008,-0.0325 z m -4.458,5.0219 v -0.9523 c 0,-0.0688 -0.056,-0.1254 -0.125,-0.1254 h -2.167 c -0.037,0 -0.068,-0.0313 -0.068,-0.0684 v -5.9504 c 0,-0.0683 -0.057,-0.1254 -0.127,-0.1254 h -1.09 c -0.069,0 -0.126,0.0571 -0.126,0.1254 v 5.9504 c 0,0.0371 -0.031,0.0684 -0.068,0.0684 h -2.167 c -0.069,0 -0.125,0.0566 -0.125,0.1254 v 0.9523 c 0,0.0695 0.056,0.1262 0.125,0.1262 h 5.813 c 0.069,0 0.125,-0.0567 0.125,-0.1262 z m -8.768,-7.0965 v 7.0965 c 0,0.0695 0.057,0.1262 0.125,0.1262 h 1.091 c 0.07,0 0.126,-0.0567 0.126,-0.1262 v -7.0965 c 0,-0.0683 -0.056,-0.1254 -0.126,-0.1254 h -1.091 c -0.068,0 -0.125,0.0571 -0.125,0.1254 z m -4.36,7.361 c 0.603,0 1.512,-0.0942 2.179,-0.2563 0.06,-0.0144 0.102,-0.0734 0.097,-0.1344 l -0.089,-0.8851 c -0.008,-0.0742 -0.076,-0.1258 -0.149,-0.1113 -0.615,0.1191 -1.476,0.2109 -2.025,0.2109 -1.302,0 -1.406,-0.1176 -1.406,-0.8688 0,-0.4039 0.005,-0.5718 0.175,-0.7113 0.187,-0.1519 0.57,-0.2687 1.378,-0.4914 2.134,-0.5723 2.285,-0.8726 2.285,-2.2906 0,-1.3953 -0.449,-2.0863 -2.708,-2.0863 -0.742,0 -1.754,0.1488 -2.469,0.4214 -0.055,0.0204 -0.09,0.0817 -0.079,0.1395 l 0.152,0.8465 c 0.013,0.073 0.086,0.1191 0.158,0.0988 0.741,-0.2113 1.571,-0.3293 2.252,-0.3293 1.185,0 1.352,0.1941 1.352,0.8816 0,0.4356 -0.01,0.6 -0.175,0.734 -0.187,0.1524 -0.571,0.2657 -1.405,0.4828 -2.127,0.5602 -2.259,0.9457 -2.259,2.3457 0,1.5196 0.728,2.0036 2.736,2.0036 z m -8.7405,-1.3969 v -2.4832 c 0,-0.0375 0.0316,-0.0688 0.0675,-0.0688 h 1.96 c 0.769,0 0.925,0.2387 0.925,0.8403 v 0.939 c 0,0.6028 -0.156,0.8414 -0.925,0.8414 h -1.96 c -0.0359,0 -0.0675,-0.032 -0.0675,-0.0687 z m -1.3426,1.1324 c 0,0.0695 0.0586,0.1262 0.1261,0.1262 h 3.1754 c 1.7796,0 2.3356,-0.7352 2.3356,-1.9203 v -1.1325 c 0,-0.7886 -0.248,-1.3921 -0.967,-1.6968 -0.041,-0.0176 -0.056,-0.0649 -0.029,-0.102 l 1.546,-2.3008 c 0.057,-0.0867 0,-0.1957 -0.105,-0.1957 h -1.225 c -0.038,0 -0.083,0.0239 -0.105,0.0555 l -1.5439,2.2891 c -0.011,0.0144 -0.0395,0.0304 -0.0559,0.0304 H 98.082 c -0.0359,0 -0.0675,-0.0316 -0.0675,-0.0687 v -2.1809 c 0,-0.0683 -0.0575,-0.1254 -0.1258,-0.1254 H 96.798 c -0.0675,0 -0.1261,0.0571 -0.1261,0.1254 z m -7.0574,-7.0965 v 7.0965 c 0,0.0695 0.0554,0.1262 0.1257,0.1262 h 4.6797 c 0.0703,0 0.1262,-0.0567 0.1262,-0.1262 v -0.9383 c 0,-0.0687 -0.0559,-0.1254 -0.1262,-0.1254 h -3.3945 c -0.0371,0 -0.0703,-0.032 -0.0703,-0.0687 v -1.7102 c 0,-0.0371 0.0332,-0.0683 0.0703,-0.0683 h 3.1328 c 0.0684,0 0.1262,-0.0571 0.1262,-0.1254 v -0.9395 c 0,-0.0687 -0.0578,-0.1254 -0.1262,-0.1254 h -3.1328 c -0.0371,0 -0.0703,-0.032 -0.0703,-0.0691 v -1.793 c 0,-0.0371 0.0332,-0.0683 0.0703,-0.0683 h 3.4082 c 0.0691,0 0.1262,-0.0571 0.1262,-0.1258 v -0.9391 c 0,-0.0683 -0.0571,-0.1254 -0.1262,-0.1254 h -4.6934 c -0.0703,0 -0.1257,0.0571 -0.1257,0.1254 z m -4.1086,-0.1254 h -1.4598 c -0.052,0 -0.102,0.0368 -0.1191,0.0844 l -2.4832,7.0969 c -0.0297,0.084 0.0304,0.1668 0.1183,0.1668 h 1.0719 c 0.0512,0 0.1019,-0.0367 0.1187,-0.0848 l 1.9582,-5.7336 c 0.0246,-0.0699 0.1067,-0.0699 0.1297,0 l 1.9582,5.7336 c 0.0176,0.0481 0.0684,0.0848 0.1184,0.0848 h 1.073 c 0.0879,0 0.1477,-0.0828 0.1192,-0.1668 L 85.623,47.7246 C 85.6086,47.677 85.5566,47.6402 85.5059,47.6402 Z m -6.7918,0.1254 v 7.0965 c 0,0.0695 0.057,0.1262 0.1257,0.1262 h 1.0903 c 0.0687,0 0.1262,-0.0567 0.1262,-0.1262 v -7.0965 c 0,-0.0683 -0.0575,-0.1254 -0.1262,-0.1254 h -1.0903 c -0.0687,0 -0.1257,0.0571 -0.1257,0.1254 z m -8.2043,7.2227 h 1.4121 c 0.0422,0 0.0879,-0.0258 0.109,-0.0621 l 3.0722,-5.25 c 0.0391,-0.0676 0.1278,-0.043 0.1278,0.0347 v 5.1512 c 0,0.0695 0.0562,0.1262 0.1261,0.1262 h 1.0352 c 0.0687,0 0.1258,-0.0567 0.1258,-0.1262 v -7.0965 c 0,-0.0683 -0.0571,-0.1254 -0.1258,-0.1254 h -1.4121 c -0.041,0 -0.0879,0.027 -0.109,0.0625 l -3.0715,5.25 c -0.0398,0.0672 -0.1285,0.0434 -0.1285,-0.0347 v -5.1524 c 0,-0.0683 -0.0559,-0.1254 -0.125,-0.1254 h -1.0363 c -0.0688,0 -0.1258,0.0571 -0.1258,0.1254 v 7.0965 c 0,0.0695 0.057,0.1262 0.1258,0.1262 z M 64.8645,48.734 c 1.4152,0 1.9867,0.5672 1.9867,1.6414 v 6.5031 c 0,0.0688 0.057,0.1254 0.1258,0.1254 h 1.1043 c 0.0687,0 0.1257,-0.0566 0.1257,-0.1254 v -6.5722 c 0,-1.5551 -0.9109,-2.8043 -3.3425,-2.8043 -2.4313,0 -3.3434,1.2492 -3.3434,2.8043 v 6.5722 c 0,0.0688 0.0582,0.1254 0.1258,0.1254 h 1.1051 c 0.0687,0 0.125,-0.0566 0.125,-0.1254 v -6.5031 c 0,-1.0742 0.5722,-1.6414 1.9875,-1.6414 v 0 0"
         style="fill:#ffffff;fill-opacity:1;fill-rule:nonzero;stroke:none;stroke-width:0.1"
         id="path78"
         inkscape:connector-curvature="0" /><path
         d="m 61.6316,35.134 c 0,0.0879 0.0079,0.1914 0.0321,0.3191 l 0.4078,2.3028 c 0.1922,1.0879 0.8558,1.5597 2.1508,1.5597 0.5355,0 1.0156,-0.0886 1.5351,-0.232 l -0.2636,-1.0074 c -0.4477,0.0957 -1.0075,0.1758 -1.3915,0.1758 -0.5675,0 -0.7996,-0.1922 -0.8953,-0.752 l -0.3281,-1.8547 c -0.0156,-0.0875 -0.0238,-0.1922 -0.0238,-0.2476 0,-0.3684 0.2078,-0.5039 0.6554,-0.5039 0.384,0 0.9036,0.0476 1.3836,0.1523 l 0.0399,-1.0078 c -0.4238,-0.1203 -1.0156,-0.2082 -1.6074,-0.2082 -1.175,0 -1.695,0.5597 -1.695,1.3039"
         style="fill:#ffffff;fill-opacity:1;fill-rule:nonzero;stroke:none;stroke-width:0.1"
         id="path80"
         inkscape:connector-curvature="0" /><path
         d="m 69.3434,36.7004 c 0.0082,0.0398 0.0082,0.0801 0.0082,0.1043 0,0.248 -0.184,0.384 -0.5918,0.384 -0.4563,0 -0.6875,-0.1282 -0.7438,-0.4563 L 67.7602,35.293 c -0.0559,-0.3352 0.08,-0.5028 0.5757,-0.5028 0.4555,0 0.6957,0.1356 0.7516,0.4637 z M 66.577,34.9895 c 0,0.08 0.0082,0.1679 0.0242,0.2476 l 0.2797,1.5676 c 0.1679,0.959 0.7593,1.343 2.0546,1.343 1.1036,0 1.5833,-0.543 1.5833,-1.175 0,-0.0645 -0.0083,-0.1524 -0.0243,-0.2325 l -0.2718,-1.5664 c -0.1434,-0.8476 -0.575,-1.3437 -2.0469,-1.3437 -1.143,0 -1.5988,0.5363 -1.5988,1.1594"
         style="fill:#ffffff;fill-opacity:1;fill-rule:nonzero;stroke:none;stroke-width:0.1"
         id="path82"
         inkscape:connector-curvature="0" /><path
         d="m 72.5281,38.0684 h 1.1516 l -0.5512,-3.1668 h 1.7426 l -0.1758,-0.9914 h -2.8945 l 0.7273,4.1582"
         style="fill:#ffffff;fill-opacity:1;fill-rule:nonzero;stroke:none;stroke-width:0.1"
         id="path84"
         inkscape:connector-curvature="0" /><path
         d="m 77.0645,38.0684 h 1.1511 l -0.5511,-3.1668 h 1.7425 l -0.1757,-0.9914 h -2.8946 l 0.7278,4.1582"
         style="fill:#ffffff;fill-opacity:1;fill-rule:nonzero;stroke:none;stroke-width:0.1"
         id="path86"
         inkscape:connector-curvature="0" /><path
         d="m 81.6086,38.0684 h 2.9656 l -0.1672,-0.92 h -1.8152 l -0.1199,-0.6718 h 1.6875 L 83.991,35.5656 H 82.3121 L 82.184,34.8301 h 1.8226 l -0.1597,-0.9199 h -2.9742 l 0.7359,4.1582"
         style="fill:#ffffff;fill-opacity:1;fill-rule:nonzero;stroke:none;stroke-width:0.1"
         id="path88"
         inkscape:connector-curvature="0" /><path
         d="m 85.7297,34.9016 c 0,0.0879 0.0074,0.1843 0.023,0.2879 l 0.2961,1.6632 c 0.1758,0.9911 0.6242,1.295 1.8235,1.295 0.5117,0 1.1035,-0.0879 1.5672,-0.2395 l -0.1922,-0.8633 c -0.4719,0.0879 -1.016,0.1438 -1.4153,0.1438 -0.4082,0 -0.584,-0.0957 -0.6394,-0.4239 l -0.2641,-1.4953 c -0.0086,-0.0476 -0.0164,-0.1043 -0.0164,-0.1757 0,-0.2079 0.0879,-0.3282 0.4961,-0.3282 0.1438,0 0.3594,0.0078 0.6398,0.0481 l 0.2,1.1191 h 1.0391 L 88.959,34.0383 c -0.3836,-0.1125 -1.1516,-0.2082 -1.7188,-0.2082 -1.0554,0 -1.5105,0.416 -1.5105,1.0715"
         style="fill:#ffffff;fill-opacity:1;fill-rule:nonzero;stroke:none;stroke-width:0.1"
         id="path90"
         inkscape:connector-curvature="0" /><path
         d="m 91.5527,38.0684 h 2.9668 l -0.1679,-0.92 H 92.5359 L 92.416,36.4766 h 1.6875 l -0.168,-0.911 h -1.6796 l -0.1282,-0.7355 h 1.8235 L 93.791,33.9102 h -2.9734 l 0.7351,4.1582"
         style="fill:#ffffff;fill-opacity:1;fill-rule:nonzero;stroke:none;stroke-width:0.1"
         id="path92"
         inkscape:connector-curvature="0" /><path
         d="m 100.928,36.7004 c 0.008,0.0398 0.008,0.0801 0.008,0.1043 0,0.248 -0.184,0.384 -0.592,0.384 -0.4561,0 -0.6877,-0.1282 -0.7444,-0.4563 L 99.3438,35.293 c -0.0555,-0.3352 0.08,-0.5028 0.5761,-0.5028 0.4561,0 0.6951,0.1356 0.7521,0.4637 z m -2.7671,-1.7109 c 0,0.08 0.0079,0.1679 0.0239,0.2476 l 0.28,1.5676 c 0.168,0.959 0.7598,1.343 2.0552,1.343 1.103,0 1.583,-0.543 1.583,-1.175 0,-0.0645 -0.008,-0.1524 -0.024,-0.2325 l -0.272,-1.5664 c -0.144,-0.8476 -0.576,-1.3437 -2.0472,-1.3437 -1.1438,0 -1.5989,0.5363 -1.5989,1.1594"
         style="fill:#ffffff;fill-opacity:1;fill-rule:nonzero;stroke:none;stroke-width:0.1"
         id="path94"
         inkscape:connector-curvature="0" /><path
         d="m 104.951,36.293 h 1.712 l -0.16,-0.92 h -1.711 l -0.256,-1.4628 h -1.151 l 0.735,4.1582 h 2.99 l -0.16,-0.92 h -1.846 l -0.153,-0.8554"
         style="fill:#ffffff;fill-opacity:1;fill-rule:nonzero;stroke:none;stroke-width:0.1"
         id="path96"
         inkscape:connector-curvature="0" /><path
         d="m 111.385,39.2355 h 3.349 l -0.183,-1.0402 h -2.175 L 112.2,37.1809 h 2.007 l -0.184,-1.0325 h -2.007 L 111.8,34.9492 h 2.175 l -0.176,-1.039 h -3.35 l 0.936,5.3253"
         style="fill:#ffffff;fill-opacity:1;fill-rule:nonzero;stroke:none;stroke-width:0.1"
         id="path98"
         inkscape:connector-curvature="0" /><path
         d="m 117.088,36.509 -0.456,-2.5988 h -1.087 l 0.727,4.1582 h 1.383 l 0.952,-2.6075 0.463,2.6075 h 1.088 l -0.735,-4.1582 h -1.384 l -0.951,2.5988"
         style="fill:#ffffff;fill-opacity:1;fill-rule:nonzero;stroke:none;stroke-width:0.1"
         id="path100"
         inkscape:connector-curvature="0" /><path
         d="m 121.425,34.9016 c 0,0.0879 0.008,0.1843 0.023,0.2879 l 0.296,1.6632 c 0.176,0.9911 0.624,1.295 1.823,1.295 0.512,0 1.104,-0.0879 1.568,-0.2395 l -0.193,-0.8633 c -0.471,0.0879 -1.015,0.1438 -1.415,0.1438 -0.408,0 -0.584,-0.0957 -0.639,-0.4239 l -0.264,-1.4953 c -0.009,-0.0476 -0.017,-0.1043 -0.017,-0.1757 0,-0.2079 0.088,-0.3282 0.497,-0.3282 0.143,0 0.359,0.0078 0.639,0.0481 l 0.2,1.1191 h 1.039 l -0.328,-1.8945 c -0.383,-0.1125 -1.151,-0.2082 -1.718,-0.2082 -1.056,0 -1.511,0.416 -1.511,1.0715"
         style="fill:#ffffff;fill-opacity:1;fill-rule:nonzero;stroke:none;stroke-width:0.1"
         id="path102"
         inkscape:connector-curvature="0" /><path
         d="m 127.288,38.0684 h 1.151 l -0.735,-4.1582 h -1.151 l 0.735,4.1582"
         style="fill:#ffffff;fill-opacity:1;fill-rule:nonzero;stroke:none;stroke-width:0.1"
         id="path104"
         inkscape:connector-curvature="0" /><path
         d="m 131.208,36.509 -0.456,-2.5988 h -1.087 l 0.728,4.1582 h 1.382 l 0.952,-2.6075 0.463,2.6075 h 1.088 l -0.735,-4.1582 h -1.384 l -0.951,2.5988"
         style="fill:#ffffff;fill-opacity:1;fill-rule:nonzero;stroke:none;stroke-width:0.1"
         id="path106"
         inkscape:connector-curvature="0" /><path
         d="m 136.2,38.0684 h 2.966 l -0.167,-0.92 h -1.815 l -0.121,-0.6718 h 1.688 l -0.168,-0.911 h -1.68 l -0.128,-0.7355 h 1.824 l -0.161,-0.9199 h -2.973 l 0.735,4.1582"
         style="fill:#ffffff;fill-opacity:1;fill-rule:nonzero;stroke:none;stroke-width:0.1"
         id="path108"
         inkscape:connector-curvature="0" /><path
         d="m 140.976,38.0684 h 2.965 l -0.167,-0.92 h -1.815 l -0.12,-0.6718 h 1.687 l -0.168,-0.911 h -1.679 l -0.128,-0.7355 h 1.823 l -0.16,-0.9199 h -2.974 l 0.736,4.1582"
         style="fill:#ffffff;fill-opacity:1;fill-rule:nonzero;stroke:none;stroke-width:0.1"
         id="path110"
         inkscape:connector-curvature="0" /><path
         d="m 147.919,36.7805 c 0.008,0.0476 0.016,0.1043 0.016,0.1441 0,0.1516 -0.096,0.216 -0.336,0.216 h -0.864 l -0.215,-1.2078 h 0.855 c 0.312,0 0.424,0.1524 0.464,0.3758 z m -0.784,-1.7512 h -0.776 l -0.191,-1.1191 h -1.151 l 0.735,4.1582 h 2.007 c 0.975,0 1.327,-0.3204 1.327,-0.8875 0,-0.1047 0,-0.1926 -0.032,-0.3684 l -0.096,-0.5437 c -0.08,-0.4719 -0.224,-0.7278 -0.687,-0.9993 l 0.671,-1.3593 h -1.263 l -0.544,1.1191"
         style="fill:#ffffff;fill-opacity:1;fill-rule:nonzero;stroke:none;stroke-width:0.1"
         id="path112"
         inkscape:connector-curvature="0" /><path
         d="m 151.224,38.0684 h 1.151 l -0.735,-4.1582 h -1.152 l 0.736,4.1582"
         style="fill:#ffffff;fill-opacity:1;fill-rule:nonzero;stroke:none;stroke-width:0.1"
         id="path114"
         inkscape:connector-curvature="0" /><path
         d="m 155.144,36.509 -0.456,-2.5988 h -1.087 l 0.727,4.1582 h 1.383 l 0.951,-2.6075 0.464,2.6075 h 1.088 l -0.735,-4.1582 h -1.384 l -0.951,2.5988"
         style="fill:#ffffff;fill-opacity:1;fill-rule:nonzero;stroke:none;stroke-width:0.1"
         id="path116"
         inkscape:connector-curvature="0" /><path
         d="m 159.48,34.9016 c 0,0.0879 0.008,0.1843 0.024,0.2879 l 0.296,1.6632 c 0.176,0.9911 0.624,1.295 1.823,1.295 0.512,0 1.104,-0.0879 1.567,-0.2395 l -0.192,-0.8633 c -0.472,0.0879 -1.016,0.1438 -1.415,0.1438 -0.408,0 -0.584,-0.0957 -0.64,-0.4239 l -0.263,-1.4953 c -0.008,-0.0476 -0.017,-0.1043 -0.017,-0.1757 0,-0.2079 0.088,-0.3282 0.496,-0.3282 0.144,0 0.36,0.0078 0.64,0.0481 l 0.2,1.1191 h 1.039 l -0.328,-1.8945 c -0.384,-0.1125 -1.151,-0.2082 -1.719,-0.2082 -1.055,0 -1.511,0.416 -1.511,1.0715"
         style="fill:#ffffff;fill-opacity:1;fill-rule:nonzero;stroke:none;stroke-width:0.1"
         id="path118"
         inkscape:connector-curvature="0" /><path
         d="m 62.6277,21.1602 h 0.5778 c 0.5953,0 0.9008,0.0343 1.3175,0.2296 0.6883,0.3321 1.4196,2.6258 1.4196,3.7137 0,0.9953 -0.493,1.3438 -1.5129,1.3438 h -0.459 z m -0.1441,5.2871 0.0594,0.1953 h 2.0648 c 1.5215,0 2.1594,-0.9949 2.1594,-2.2352 0,-1.3769 -1.0289,-3.4426 -3.0004,-3.4426 h -2.4902 l 0.0593,0.1954 h 0.4844 l 1.3344,5.2871 h -0.6711"
         style="fill:#ffffff;fill-opacity:1;fill-rule:nonzero;stroke:none;stroke-width:0.1"
         id="path120"
         inkscape:connector-curvature="0" /><path
         d="m 69.6738,23.8289 c 0,0.2043 -0.1609,0.391 -0.3652,0.391 -0.5953,0 -0.9523,-0.9433 -1.0879,-1.4277 1.0027,0 1.4531,0.4766 1.4531,1.0367 z m 0.3403,-1.9969 c -0.3145,-0.5781 -0.6711,-0.9609 -1.3516,-0.9609 -0.748,0 -1.2746,0.6543 -1.2746,1.3516 0,1.0625 1.0535,2.1925 2.0734,2.1925 0.459,0 0.816,-0.2882 0.816,-0.6964 0,-0.5352 -0.5269,-1.0965 -2.0992,-1.1055 -0.0593,-0.2371 -0.1273,-0.4754 -0.1273,-0.7391 0,-0.425 0.1953,-0.7902 0.6461,-0.7902 0.6117,0 0.875,0.3398 1.1726,0.8496 l 0.1446,-0.1016"
         style="fill:#ffffff;fill-opacity:1;fill-rule:nonzero;stroke:none;stroke-width:0.1"
         id="path122"
         inkscape:connector-curvature="0" /><path
         d="m 71.8328,21.6535 c 0,-0.3144 0.2215,-0.6125 0.5442,-0.6125 0.5015,0 0.6972,0.1953 0.9859,1.0117 0.2555,0.7137 0.3312,1.1477 0.3312,1.4786 0,0.4257 -0.1273,0.714 -0.5773,0.714 -0.6035,0 -0.9012,-0.7902 -1.0289,-1.2914 -0.1016,-0.366 -0.2551,-0.9266 -0.2551,-1.3004 z m -1.7422,-2.6094 0.0598,0.17 h 0.4672 l 1.1816,4.9207 h -0.6629 l 0.0594,0.1953 h 0.1617 c 0.2035,0 0.6543,0.0429 1.0789,0.0851 l -0.1355,-0.5011 0.0168,-0.0164 c 0.2465,0.2968 0.4929,0.5175 0.9347,0.5175 0.3743,0 1.0879,-0.2461 1.0879,-1.3593 0,-0.9688 -0.9089,-2.1848 -1.8785,-2.1848 -0.314,0 -0.6117,0.1191 -0.7472,0.4336 h -0.0172 l -0.5016,-2.0906 h 0.6203 l -0.0594,-0.17 h -1.666"
         style="fill:#ffffff;fill-opacity:1;fill-rule:nonzero;stroke:none;stroke-width:0.1"
         id="path124"
         inkscape:connector-curvature="0" /><path
         d="m 75.777,21.6953 c 0,-0.3562 0.1957,-0.6543 0.5609,-0.6543 0.2125,0 0.6715,0.1699 0.9859,1.0371 0.1528,0.425 0.3739,1.1133 0.3739,1.5723 0,0.3488 -0.1954,0.5949 -0.5438,0.5949 -0.4508,0 -0.7059,-0.425 -0.8926,-0.7988 -0.2207,-0.4336 -0.4843,-1.2578 -0.4843,-1.7512 z m 2.8468,2.6348 -0.807,-2.9149 c -0.0684,-0.2207 0.068,-0.2804 0.1613,-0.2804 0.2891,0 0.7481,0.7226 0.8328,1.0625 l 0.1618,-0.0508 c -0.3235,-0.9356 -0.7817,-1.2754 -1.1645,-1.2754 -0.3227,0 -0.5863,0.2129 -0.5949,0.5441 h -0.0168 c -0.2215,-0.3312 -0.6121,-0.5441 -0.9777,-0.5441 -0.6715,0 -1.0879,0.5363 -1.0879,1.3008 0,0.9777 1.0711,2.2433 2.0312,2.2433 0.3402,0 0.5609,-0.2121 0.6801,-0.5175 h 0.0086 l 0.1441,0.4324 h 0.6289"
         style="fill:#ffffff;fill-opacity:1;fill-rule:nonzero;stroke:none;stroke-width:0.1"
         id="path126"
         inkscape:connector-curvature="0" /><path
         d="m 80.4438,24.1348 h -0.6711 l 0.0593,0.1953 h 0.1614 c 0.2379,0 0.8156,0.0519 1.139,0.0851 l -0.2125,-0.8496 0.0164,-0.009 c 0.2043,0.3918 0.5867,0.8586 1.0457,0.8586 0.1957,0 0.391,-0.1183 0.391,-0.3398 0,-0.1953 -0.1527,-0.3399 -0.3398,-0.3399 -0.2383,0 -0.3398,0.2293 -0.4844,0.2293 -0.1789,0 -0.6715,-0.5945 -0.8754,-1.4109 l -0.3996,-1.5891 h -0.6117 l 0.7817,3.17"
         style="fill:#ffffff;fill-opacity:1;fill-rule:nonzero;stroke:none;stroke-width:0.1"
         id="path128"
         inkscape:connector-curvature="0" /><path
         d="M 84.0984,24.1348 83.4785,21.6875 C 83.4277,21.5 83.3848,21.373 83.3848,21.3223 c 0,-0.1278 0.0507,-0.1961 0.1699,-0.1961 0.3738,0 0.748,0.5359 0.9266,1.1562 l 0.1613,-0.0597 c -0.1531,-0.6289 -0.6289,-1.3516 -1.3172,-1.3516 -0.2375,0 -0.5441,0.1281 -0.5441,0.425 0,0.1191 0.0679,0.2891 0.1363,0.5781 l 0.5687,2.2606 h -0.5777 l 0.0598,0.1953 h 0.5777 l 0.2469,0.9269 h 0.6113 l -0.2461,-0.9269 h 0.6543 l -0.0598,-0.1953 h -0.6543"
         style="fill:#ffffff;fill-opacity:1;fill-rule:nonzero;stroke:none;stroke-width:0.1"
         id="path130"
         inkscape:connector-curvature="0" /><path
         d="m 85.5945,24.1348 0.0598,0.1953 h 0.1609 c 0.2219,0 0.7485,0.0429 1.1477,0.0851 l -0.1699,-0.705 0.0254,-0.0168 c 0.3066,0.382 0.6718,0.7218 1.1906,0.7218 0.323,0 0.7223,-0.1613 0.7137,-0.7218 h 0.0086 0.0167 c 0.3055,0.3906 0.6797,0.7218 1.1817,0.7218 0.425,0 0.748,-0.1523 0.748,-0.705 0,-0.2551 -0.6035,-2.3293 -0.6035,-2.3965 0,-0.136 0.136,-0.1699 0.2371,-0.1699 0.3918,0 0.6723,0.7136 0.791,1.0281 l 0.1614,-0.0684 c -0.2293,-0.5691 -0.5442,-1.2324 -1.2239,-1.2324 -0.2886,0 -0.5347,0.1445 -0.5347,0.459 0,0.5097 0.6035,2.2187 0.6035,2.4988 0,0.2719 -0.2043,0.3234 -0.3828,0.3234 -0.1281,0 -0.893,-0.1621 -1.2324,-1.4453 l -0.468,-1.7422 h -0.6035 l 0.5183,2.0313 c 0.0688,0.2637 0.1875,0.6289 0.1875,0.8418 0,0.2117 -0.1531,0.3144 -0.3394,0.3144 -0.1281,0 -0.893,-0.1621 -1.2324,-1.4453 l -0.468,-1.7422 h -0.6035 l 0.7898,3.17 h -0.6797"
         style="fill:#ffffff;fill-opacity:1;fill-rule:nonzero;stroke:none;stroke-width:0.1"
         id="path132"
         inkscape:connector-curvature="0" /><path
         d="m 94.1191,23.8289 c 0,0.2043 -0.1613,0.391 -0.3652,0.391 -0.5945,0 -0.9519,-0.9433 -1.0879,-1.4277 1.0028,0 1.4531,0.4766 1.4531,1.0367 z M 94.459,21.832 c -0.3145,-0.5781 -0.6707,-0.9609 -1.3516,-0.9609 -0.7469,0 -1.2746,0.6543 -1.2746,1.3516 0,1.0625 1.0539,2.1925 2.0742,2.1925 0.459,0 0.8157,-0.2882 0.8157,-0.6964 0,-0.5352 -0.5274,-1.0965 -2.0997,-1.1055 -0.0585,-0.2371 -0.1269,-0.4754 -0.1269,-0.7391 0,-0.425 0.1953,-0.7902 0.6457,-0.7902 0.6121,0 0.8758,0.3398 1.1727,0.8496 L 94.459,21.832"
         style="fill:#ffffff;fill-opacity:1;fill-rule:nonzero;stroke:none;stroke-width:0.1"
         id="path134"
         inkscape:connector-curvature="0" /><path
         d="m 95.6672,24.1348 0.0594,0.1953 h 0.1613 c 0.2383,0 0.8164,0.0519 1.1394,0.0851 L 96.823,23.6414 96.8398,23.634 c 0.2891,0.459 0.8582,0.7812 1.2579,0.7812 0.425,0 0.748,-0.1523 0.748,-0.705 0,-0.2551 -0.6035,-2.3293 -0.6035,-2.3965 0,-0.136 0.1355,-0.1699 0.2383,-0.1699 0.3906,0 0.6711,0.7136 0.7898,1.0281 l 0.1613,-0.0684 c -0.2285,-0.5691 -0.5429,-1.2324 -1.2238,-1.2324 -0.289,0 -0.5348,0.1445 -0.5348,0.459 0,0.5097 0.6036,2.2187 0.6036,2.4988 0,0.2719 -0.2043,0.3234 -0.3828,0.3234 -0.6458,0 -1.1731,-0.8418 -1.4028,-1.7937 l -0.3484,-1.3938 h -0.6113 l 0.8156,3.17 h -0.6797"
         style="fill:#ffffff;fill-opacity:1;fill-rule:nonzero;stroke:none;stroke-width:0.1"
         id="path136"
         inkscape:connector-curvature="0" /><path
         d="m 101.345,24.1348 -0.621,-2.4473 C 100.673,21.5 100.63,21.373 100.63,21.3223 c 0,-0.1278 0.052,-0.1961 0.171,-0.1961 0.373,0 0.747,0.5359 0.926,1.1562 l 0.162,-0.0597 c -0.154,-0.6289 -0.629,-1.3516 -1.318,-1.3516 -0.238,0 -0.544,0.1281 -0.544,0.425 0,0.1191 0.068,0.2891 0.136,0.5781 l 0.569,2.2606 h -0.578 l 0.06,0.1953 h 0.578 l 0.246,0.9269 h 0.612 l -0.247,-0.9269 h 0.656 l -0.06,-0.1953 h -0.654"
         style="fill:#ffffff;fill-opacity:1;fill-rule:nonzero;stroke:none;stroke-width:0.1"
         id="path138"
         inkscape:connector-curvature="0" /><path
         d="m 105.739,21.7473 c 0,-0.3828 0.263,-0.7063 0.646,-0.7063 0.56,0 0.816,0.459 0.986,0.9356 0.178,0.4922 0.322,1.0363 0.322,1.5636 0,0.4246 -0.17,0.7051 -0.603,0.7051 -0.535,0 -0.841,-0.459 -1.003,-0.9258 -0.102,-0.289 -0.348,-1.2668 -0.348,-1.5722 z m 0.68,-0.8762 c -0.876,0 -1.326,0.6719 -1.326,1.241 0,1.1477 0.977,2.3031 2.056,2.3031 0.723,0 1.242,-0.6289 1.242,-1.3507 0,-0.9774 -0.935,-2.1934 -1.972,-2.1934"
         style="fill:#ffffff;fill-opacity:1;fill-rule:nonzero;stroke:none;stroke-width:0.1"
         id="path140"
         inkscape:connector-curvature="0" /><path
         d="m 110.618,24.1348 -0.34,-1.4785 c -0.781,-3.3145 -1.563,-3.5958 -2.192,-3.5958 -0.264,0 -0.647,0.1282 -0.647,0.468 0,0.1953 0.128,0.3828 0.374,0.3828 0.111,0 0.29,-0.1105 0.29,-0.3488 0,-0.043 -0.093,-0.2039 -0.093,-0.2129 0,-0.0926 0.127,-0.0926 0.186,-0.0926 0.255,0 0.51,0.17 0.646,0.4754 0.094,0.1953 0.289,0.8164 0.408,1.3262 l 0.731,3.0762 h -0.731 l 0.06,0.1953 h 0.731 c 0.195,0.9269 0.935,2.5168 1.988,2.5168 0.324,0 0.655,-0.1535 0.655,-0.5364 0,-0.1863 -0.153,-0.3222 -0.331,-0.3222 -0.179,0 -0.332,0.1105 -0.332,0.2883 0,0.1445 0.093,0.2039 0.093,0.2976 0,0.0852 -0.144,0.1016 -0.204,0.1016 -0.382,0 -1.028,-0.8067 -1.249,-2.3457 h 0.85 l -0.06,-0.1953 h -0.833"
         style="fill:#ffffff;fill-opacity:1;fill-rule:nonzero;stroke:none;stroke-width:0.1"
         id="path142"
         inkscape:connector-curvature="0" /><path
         d="m 61.302,11.4648 0.0593,0.1954 h 0.4762 l 1.3344,5.2871 h -0.6461 l 0.0597,0.1953 h 3.9348 l -0.3312,-1.4793 h -0.2125 c 0.0254,0.1445 0.0336,0.2722 0.0336,0.3914 0,0.6289 -0.2375,0.8926 -1.2579,0.8926 h -0.7562 l -0.6117,-2.4317 c 0.9179,0.009 1.0961,0.1028 1.4277,0.8926 h 0.2211 L 64.4723,13.207 h -0.2125 c 0.0172,0.1535 0.0254,0.2981 0.0254,0.4082 0,0.5528 -0.1274,0.6203 -0.9606,0.6711 l -0.6715,-2.6261 h 0.8586 c 1.1731,0 1.5813,0.2382 2.1586,1.4023 h 0.2383 l -0.493,-1.5977 H 61.302"
         style="fill:#ffffff;fill-opacity:1;fill-rule:nonzero;stroke:none;stroke-width:0.1"
         id="path144"
         inkscape:connector-curvature="0" /><path
         d="m 67.6508,17.1086 0.0597,0.1953 h 0.3231 c 0.6035,0 0.807,0.025 1.0031,0.043 l -1.3941,-5.2102 c -0.0254,-0.1023 -0.0766,-0.2215 -0.0766,-0.3066 0,-0.1102 0.136,-0.161 0.2383,-0.161 0.348,0 0.6625,0.5692 0.909,1.1133 l 0.1617,-0.0597 c -0.3062,-0.8153 -0.748,-1.3516 -1.343,-1.3516 -0.2632,0 -0.5355,0.1367 -0.5355,0.4426 0,0.1101 0.0515,0.3398 0.0851,0.4754 l 1.2664,4.8195 h -0.6972"
         style="fill:#ffffff;fill-opacity:1;fill-rule:nonzero;stroke:none;stroke-width:0.1"
         id="path146"
         inkscape:connector-curvature="0" /><path
         d="m 71.8586,14.3289 c 0,0.2043 -0.1613,0.391 -0.3652,0.391 -0.5954,0 -0.9524,-0.9433 -1.0879,-1.4277 1.0027,0 1.4531,0.4766 1.4531,1.0367 z m 0.3402,-1.9969 c -0.3144,-0.5781 -0.6715,-0.9609 -1.3515,-0.9609 -0.7481,0 -1.275,0.6543 -1.275,1.3516 0,1.0625 1.0539,2.1925 2.0738,2.1925 0.459,0 0.8156,-0.2882 0.8156,-0.6964 0,-0.5352 -0.5265,-1.0965 -2.0988,-1.1055 -0.0598,-0.2371 -0.1274,-0.4754 -0.1274,-0.7391 0,-0.425 0.1954,-0.7902 0.6458,-0.7902 0.6121,0 0.875,0.3398 1.173,0.8496 l 0.1445,-0.1016"
         style="fill:#ffffff;fill-opacity:1;fill-rule:nonzero;stroke:none;stroke-width:0.1"
         id="path148"
         inkscape:connector-curvature="0" /><path
         d="m 75.8535,12.2891 c -0.3062,-0.4668 -0.7562,-0.918 -1.343,-0.918 -0.9945,0 -1.3425,0.8078 -1.3425,1.2324 0,1.1563 1.0285,2.3117 2.0566,2.3117 0.4246,0 0.8754,-0.2375 0.8754,-0.7304 0,-0.1953 -0.1445,-0.4082 -0.3398,-0.4082 -0.1786,0 -0.3403,0.1187 -0.3403,0.3062 0,0.2883 0.2465,0.3481 0.2465,0.4668 0,0.1449 -0.2891,0.1957 -0.4074,0.1957 -0.6551,0 -0.927,-0.5949 -1.0715,-0.9687 -0.2297,-0.6203 -0.348,-1.0703 -0.348,-1.5039 0,-0.4336 0.2718,-0.6887 0.671,-0.6887 0.5614,0 0.8926,0.3738 1.2075,0.7988 l 0.1355,-0.0937"
         style="fill:#ffffff;fill-opacity:1;fill-rule:nonzero;stroke:none;stroke-width:0.1"
         id="path150"
         inkscape:connector-curvature="0" /><path
         d="M 78.1402,14.6348 77.5195,12.1875 C 77.4688,12 77.4262,11.873 77.4262,11.8223 c 0,-0.1278 0.0508,-0.1961 0.1699,-0.1961 0.3742,0 0.748,0.5359 0.9266,1.1562 l 0.1613,-0.0597 c -0.1527,-0.6289 -0.6289,-1.3516 -1.3172,-1.3516 -0.2379,0 -0.5441,0.1281 -0.5441,0.425 0,0.1191 0.0679,0.2891 0.1363,0.5781 l 0.5691,2.2606 h -0.5777 l 0.0594,0.1953 h 0.5781 l 0.2461,0.9269 h 0.6125 l -0.2469,-0.9269 h 0.6543 l -0.0594,-0.1953 h -0.6543"
         style="fill:#ffffff;fill-opacity:1;fill-rule:nonzero;stroke:none;stroke-width:0.1"
         id="path152"
         inkscape:connector-curvature="0" /><path
         d="M 80.2734,14.6348 H 79.602 l 0.0597,0.1953 h 0.161 c 0.2382,0 0.816,0.0519 1.139,0.0851 l -0.2121,-0.8496 0.0164,-0.009 c 0.2043,0.3918 0.5863,0.8586 1.0453,0.8586 0.1961,0 0.3914,-0.1183 0.3914,-0.3398 0,-0.1953 -0.1531,-0.3399 -0.3398,-0.3399 -0.2383,0 -0.3399,0.2293 -0.4844,0.2293 -0.1789,0 -0.6715,-0.5945 -0.8758,-1.4109 L 80.1035,11.4648 H 79.491 l 0.7824,3.17"
         style="fill:#ffffff;fill-opacity:1;fill-rule:nonzero;stroke:none;stroke-width:0.1"
         id="path154"
         inkscape:connector-curvature="0" /><path
         d="m 83.7844,16.6328 c 0,0.2285 0.1699,0.416 0.3902,0.416 0.2207,0 0.3906,-0.1875 0.3906,-0.416 0,-0.2383 -0.1699,-0.4082 -0.3906,-0.4082 -0.2203,0 -0.3902,0.1699 -0.3902,0.4082 z m 0.7984,-4.0039 c -0.2383,-0.7391 -0.6375,-1.2578 -1.2754,-1.2578 -0.2625,0 -0.5347,0.1367 -0.5347,0.4426 0,0.1101 0.0503,0.3398 0.0847,0.4754 l 0.6114,2.3457 H 82.798 l 0.0594,0.1953 h 0.1621 c 0.2371,0 0.8157,0.0519 1.1387,0.0851 L 83.418,12.1367 c -0.0254,-0.1023 -0.0762,-0.2215 -0.0762,-0.3066 0,-0.1102 0.1367,-0.161 0.2383,-0.161 0.3484,0 0.6633,0.5692 0.841,1.0196 l 0.1617,-0.0598"
         style="fill:#ffffff;fill-opacity:1;fill-rule:nonzero;stroke:none;stroke-width:0.1"
         id="path156"
         inkscape:connector-curvature="0" /><path
         d="m 87.907,12.2891 c -0.3062,-0.4668 -0.7566,-0.918 -1.3433,-0.918 -0.9946,0 -1.343,0.8078 -1.343,1.2324 0,1.1563 1.0281,2.3117 2.0566,2.3117 0.4258,0 0.8758,-0.2375 0.8758,-0.7304 0,-0.1953 -0.1441,-0.4082 -0.3394,-0.4082 -0.1789,0 -0.3403,0.1187 -0.3403,0.3062 0,0.2883 0.2461,0.3481 0.2461,0.4668 0,0.1449 -0.2886,0.1957 -0.4082,0.1957 -0.6543,0 -0.9258,-0.5949 -1.0703,-0.9687 -0.2293,-0.6203 -0.3484,-1.0703 -0.3484,-1.5039 0,-0.4336 0.2715,-0.6887 0.6711,-0.6887 0.5613,0 0.8926,0.3738 1.2066,0.7988 l 0.1367,-0.0937"
         style="fill:#ffffff;fill-opacity:1;fill-rule:nonzero;stroke:none;stroke-width:0.1"
         id="path158"
         inkscape:connector-curvature="0" /><path
         d="m 89.5469,12.1953 c 0,-0.3562 0.1953,-0.6543 0.5605,-0.6543 0.2129,0 0.6719,0.1699 0.9864,1.0371 0.1535,0.425 0.3742,1.1133 0.3742,1.5723 0,0.3488 -0.1953,0.5949 -0.5442,0.5949 -0.4504,0 -0.705,-0.425 -0.8925,-0.7988 -0.2208,-0.4336 -0.4844,-1.2578 -0.4844,-1.7512 z m 2.8476,2.6348 -0.8078,-2.9149 c -0.0679,-0.2207 0.0676,-0.2804 0.1613,-0.2804 0.2891,0 0.7481,0.7226 0.8333,1.0625 l 0.1609,-0.0508 c -0.3223,-0.9356 -0.7813,-1.2754 -1.1641,-1.2754 -0.323,0 -0.5859,0.2129 -0.5945,0.5441 h -0.0168 c -0.2219,-0.3312 -0.6121,-0.5441 -0.9773,-0.5441 -0.6719,0 -1.0879,0.5363 -1.0879,1.3008 0,0.9777 1.0703,2.2433 2.0308,2.2433 0.3403,0 0.561,-0.2121 0.6797,-0.5175 h 0.009 l 0.1445,0.4324 h 0.6289"
         style="fill:#ffffff;fill-opacity:1;fill-rule:nonzero;stroke:none;stroke-width:0.1"
         id="path160"
         inkscape:connector-curvature="0" /><path
         d="m 94.1199,17.1086 0.0598,0.1953 h 0.323 c 0.6036,0 0.8078,0.025 1.0032,0.043 l -1.3946,-5.2102 c -0.0254,-0.1023 -0.0761,-0.2215 -0.0761,-0.3066 0,-0.1102 0.1359,-0.161 0.2382,-0.161 0.3489,0 0.6629,0.5692 0.909,1.1133 l 0.1614,-0.0597 c -0.3055,-0.8153 -0.7469,-1.3516 -1.3426,-1.3516 -0.2629,0 -0.5356,0.1367 -0.5356,0.4426 0,0.1101 0.0512,0.3398 0.0852,0.4754 l 1.2668,4.8195 h -0.6977"
         style="fill:#ffffff;fill-opacity:1;fill-rule:nonzero;stroke:none;stroke-width:0.1"
         id="path162"
         inkscape:connector-curvature="0" /><path
         d="m 98.3445,11.4648 0.0598,0.1954 h 0.4758 l 1.3349,5.2871 h -0.6466 l 0.0593,0.1953 h 3.9353 l -0.332,-1.4793 h -0.211 c 0.025,0.1445 0.034,0.2722 0.034,0.3914 0,0.6289 -0.239,0.8926 -1.258,0.8926 h -0.757 l -0.612,-2.4317 c 0.918,0.009 1.096,0.1028 1.428,0.8926 h 0.221 l -0.561,-2.2012 h -0.212 c 0.016,0.1535 0.025,0.2981 0.025,0.4082 0,0.5528 -0.128,0.6203 -0.96,0.6711 l -0.6715,-2.6261 h 0.8585 c 1.173,0 1.581,0.2382 2.159,1.4023 h 0.237 l -0.492,-1.5977 h -4.1145"
         style="fill:#ffffff;fill-opacity:1;fill-rule:nonzero;stroke:none;stroke-width:0.1"
         id="path164"
         inkscape:connector-curvature="0" /><path
         d="m 104.184,14.6348 0.059,0.1953 h 0.161 c 0.239,0 0.817,0.0519 1.14,0.0851 l -0.204,-0.7738 0.016,-0.0074 c 0.29,0.459 0.859,0.7812 1.258,0.7812 0.425,0 0.748,-0.1523 0.748,-0.705 0,-0.2551 -0.603,-2.3293 -0.603,-2.3965 0,-0.136 0.136,-0.1699 0.238,-0.1699 0.391,0 0.671,0.7136 0.79,1.0281 l 0.162,-0.0684 c -0.229,-0.5691 -0.545,-1.2324 -1.224,-1.2324 -0.289,0 -0.536,0.1445 -0.536,0.459 0,0.5097 0.604,2.2187 0.604,2.4988 0,0.2719 -0.204,0.3234 -0.383,0.3234 -0.645,0 -1.173,-0.8418 -1.402,-1.7937 l -0.349,-1.3938 h -0.611 l 0.815,3.17 h -0.679"
         style="fill:#ffffff;fill-opacity:1;fill-rule:nonzero;stroke:none;stroke-width:0.1"
         id="path166"
         inkscape:connector-curvature="0" /><path
         d="m 111.153,14.2441 c 0,0.493 -0.356,0.493 -0.492,0.5012 -0.791,-0.0082 -0.901,-1.4621 -0.901,-1.5723 0,-0.3144 0.246,-0.4757 0.527,-0.4757 0.62,0 0.866,1.0371 0.866,1.5468 z m -1.886,-2.8554 c -0.357,-0.2293 -0.544,-0.4766 -0.544,-0.9266 0,-0.1016 0.059,-0.69726 0.943,-0.69726 0.562,0 1.666,0.21289 1.666,0.97736 0,0.4172 -0.349,0.459 -0.654,0.5019 -0.374,0.0508 -1.072,0.0598 -1.411,0.1446 z m 3.348,3.2551 c 0,-0.1446 -0.127,-0.2891 -0.271,-0.2891 -0.128,0 -0.213,0.0683 -0.315,0.1445 -0.085,-0.0254 0,-0.1281 -0.348,-1.0031 -0.221,-0.5691 -0.698,-0.9773 -1.428,-0.9773 -0.23,0 -0.459,0.0593 -0.647,0.1953 -0.177,-0.0168 -0.484,-0.2121 -0.484,-0.4161 0,-0.3234 0.553,-0.332 1.258,-0.3906 0.885,-0.0773 1.275,-0.2219 1.275,-0.8926 0,-1.13863 -1.207,-1.47066 -2.134,-1.47066 -0.594,0 -1.317,0.2293 -1.317,0.96096 0,0.5097 0.468,0.7558 0.833,0.909 v 0.0168 c -0.28,0.0593 -0.425,0.2039 -0.425,0.5269 0,0.3488 0.34,0.6887 0.825,0.9184 -0.145,0.1441 -0.255,0.4246 -0.255,0.6453 0,0.8242 0.748,1.3937 1.496,1.3937 0.468,0 0.807,-0.2968 0.986,-0.705 h 0.008 c 0.094,0.3144 0.238,0.7734 0.621,0.7734 0.195,0 0.322,-0.1445 0.322,-0.3398"
         style="fill:#ffffff;fill-opacity:1;fill-rule:nonzero;stroke:none;stroke-width:0.1"
         id="path168"
         inkscape:connector-curvature="0" /><path
         d="m 114.266,16.6328 c 0,0.2285 0.17,0.416 0.39,0.416 0.221,0 0.391,-0.1875 0.391,-0.416 0,-0.2383 -0.17,-0.4082 -0.391,-0.4082 -0.22,0 -0.39,0.1699 -0.39,0.4082 z m 0.798,-4.0039 c -0.238,-0.7391 -0.637,-1.2578 -1.275,-1.2578 -0.264,0 -0.535,0.1367 -0.535,0.4426 0,0.1101 0.051,0.3398 0.085,0.4754 l 0.612,2.3457 h -0.672 l 0.06,0.1953 h 0.161 c 0.238,0 0.816,0.0519 1.14,0.0851 l -0.741,-2.7785 c -0.025,-0.1023 -0.076,-0.2215 -0.076,-0.3066 0,-0.1102 0.136,-0.161 0.239,-0.161 0.348,0 0.663,0.5692 0.84,1.0196 l 0.162,-0.0598"
         style="fill:#ffffff;fill-opacity:1;fill-rule:nonzero;stroke:none;stroke-width:0.1"
         id="path170"
         inkscape:connector-curvature="0" /><path
         d="m 115.939,14.6348 0.06,0.1953 h 0.161 c 0.238,0 0.817,0.0519 1.14,0.0851 l -0.204,-0.7738 0.016,-0.0074 c 0.289,0.459 0.859,0.7812 1.258,0.7812 0.425,0 0.748,-0.1523 0.748,-0.705 0,-0.2551 -0.603,-2.3293 -0.603,-2.3965 0,-0.136 0.135,-0.1699 0.238,-0.1699 0.391,0 0.671,0.7136 0.79,1.0281 l 0.162,-0.0684 c -0.229,-0.5691 -0.545,-1.2324 -1.225,-1.2324 -0.289,0 -0.535,0.1445 -0.535,0.459 0,0.5097 0.604,2.2187 0.604,2.4988 0,0.2719 -0.204,0.3234 -0.383,0.3234 -0.645,0 -1.173,-0.8418 -1.402,-1.7937 l -0.349,-1.3938 h -0.611 l 0.815,3.17 h -0.68"
         style="fill:#ffffff;fill-opacity:1;fill-rule:nonzero;stroke:none;stroke-width:0.1"
         id="path172"
         inkscape:connector-curvature="0" /><path
         d="m 122.544,14.3289 c 0,0.2043 -0.161,0.391 -0.365,0.391 -0.595,0 -0.952,-0.9433 -1.088,-1.4277 1.003,0 1.453,0.4766 1.453,1.0367 z m 0.34,-1.9969 c -0.315,-0.5781 -0.671,-0.9609 -1.351,-0.9609 -0.748,0 -1.275,0.6543 -1.275,1.3516 0,1.0625 1.054,2.1925 2.074,2.1925 0.459,0 0.815,-0.2882 0.815,-0.6964 0,-0.5352 -0.526,-1.0965 -2.099,-1.1055 -0.06,-0.2371 -0.127,-0.4754 -0.127,-0.7391 0,-0.425 0.195,-0.7902 0.645,-0.7902 0.613,0 0.876,0.3398 1.173,0.8496 l 0.145,-0.1016"
         style="fill:#ffffff;fill-opacity:1;fill-rule:nonzero;stroke:none;stroke-width:0.1"
         id="path174"
         inkscape:connector-curvature="0" /><path
         d="m 126.147,14.3289 c 0,0.2043 -0.161,0.391 -0.365,0.391 -0.594,0 -0.952,-0.9433 -1.088,-1.4277 1.003,0 1.453,0.4766 1.453,1.0367 z m 0.34,-1.9969 c -0.314,-0.5781 -0.671,-0.9609 -1.35,-0.9609 -0.748,0 -1.276,0.6543 -1.276,1.3516 0,1.0625 1.054,2.1925 2.075,2.1925 0.459,0 0.815,-0.2882 0.815,-0.6964 0,-0.5352 -0.526,-1.0965 -2.1,-1.1055 -0.059,-0.2371 -0.127,-0.4754 -0.127,-0.7391 0,-0.425 0.196,-0.7902 0.646,-0.7902 0.612,0 0.876,0.3398 1.173,0.8496 l 0.144,-0.1016"
         style="fill:#ffffff;fill-opacity:1;fill-rule:nonzero;stroke:none;stroke-width:0.1"
         id="path176"
         inkscape:connector-curvature="0" /><path
         d="m 128.298,14.6348 h -0.672 l 0.06,0.1953 h 0.162 c 0.237,0 0.815,0.0519 1.138,0.0851 l -0.213,-0.8496 0.018,-0.009 c 0.204,0.3918 0.586,0.8586 1.045,0.8586 0.195,0 0.392,-0.1183 0.392,-0.3398 0,-0.1953 -0.154,-0.3399 -0.341,-0.3399 -0.238,0 -0.34,0.2293 -0.485,0.2293 -0.177,0 -0.671,-0.5945 -0.875,-1.4109 l -0.399,-1.5891 h -0.612 l 0.782,3.17"
         style="fill:#ffffff;fill-opacity:1;fill-rule:nonzero;stroke:none;stroke-width:0.1"
         id="path178"
         inkscape:connector-curvature="0" /><path
         d="m 131.809,16.6328 c 0,0.2285 0.17,0.416 0.39,0.416 0.221,0 0.391,-0.1875 0.391,-0.416 0,-0.2383 -0.17,-0.4082 -0.391,-0.4082 -0.22,0 -0.39,0.1699 -0.39,0.4082 z m 0.798,-4.0039 c -0.238,-0.7391 -0.637,-1.2578 -1.275,-1.2578 -0.264,0 -0.535,0.1367 -0.535,0.4426 0,0.1101 0.051,0.3398 0.085,0.4754 l 0.612,2.3457 h -0.672 l 0.06,0.1953 h 0.161 c 0.238,0 0.816,0.0519 1.14,0.0851 l -0.741,-2.7785 c -0.025,-0.1023 -0.076,-0.2215 -0.076,-0.3066 0,-0.1102 0.136,-0.161 0.238,-0.161 0.349,0 0.664,0.5692 0.841,1.0196 l 0.162,-0.0598"
         style="fill:#ffffff;fill-opacity:1;fill-rule:nonzero;stroke:none;stroke-width:0.1"
         id="path180"
         inkscape:connector-curvature="0" /><path
         d="m 133.483,14.6348 0.06,0.1953 h 0.161 c 0.238,0 0.817,0.0519 1.14,0.0851 l -0.204,-0.7738 0.016,-0.0074 c 0.289,0.459 0.859,0.7812 1.258,0.7812 0.425,0 0.748,-0.1523 0.748,-0.705 0,-0.2551 -0.603,-2.3293 -0.603,-2.3965 0,-0.136 0.135,-0.1699 0.238,-0.1699 0.391,0 0.671,0.7136 0.79,1.0281 l 0.161,-0.0684 c -0.228,-0.5691 -0.543,-1.2324 -1.224,-1.2324 -0.289,0 -0.535,0.1445 -0.535,0.459 0,0.5097 0.604,2.2187 0.604,2.4988 0,0.2719 -0.204,0.3234 -0.383,0.3234 -0.646,0 -1.173,-0.8418 -1.402,-1.7937 l -0.349,-1.3938 h -0.611 l 0.815,3.17 h -0.68"
         style="fill:#ffffff;fill-opacity:1;fill-rule:nonzero;stroke:none;stroke-width:0.1"
         id="path182"
         inkscape:connector-curvature="0" /><path
         d="m 140.452,14.2441 c 0,0.493 -0.356,0.493 -0.492,0.5012 -0.791,-0.0082 -0.901,-1.4621 -0.901,-1.5723 0,-0.3144 0.246,-0.4757 0.527,-0.4757 0.62,0 0.866,1.0371 0.866,1.5468 z m -1.887,-2.8554 c -0.356,-0.2293 -0.544,-0.4766 -0.544,-0.9266 0,-0.1016 0.06,-0.69726 0.944,-0.69726 0.561,0 1.666,0.21289 1.666,0.97736 0,0.4172 -0.349,0.459 -0.654,0.5019 -0.374,0.0508 -1.072,0.0598 -1.412,0.1446 z m 3.349,3.2551 c 0,-0.1446 -0.127,-0.2891 -0.271,-0.2891 -0.128,0 -0.213,0.0683 -0.315,0.1445 -0.085,-0.0254 0,-0.1281 -0.349,-1.0031 -0.22,-0.5691 -0.697,-0.9773 -1.427,-0.9773 -0.23,0 -0.459,0.0593 -0.647,0.1953 -0.177,-0.0168 -0.484,-0.2121 -0.484,-0.4161 0,-0.3234 0.553,-0.332 1.258,-0.3906 0.884,-0.0773 1.275,-0.2219 1.275,-0.8926 0,-1.13863 -1.207,-1.47066 -2.134,-1.47066 -0.594,0 -1.317,0.2293 -1.317,0.96096 0,0.5097 0.468,0.7558 0.833,0.909 v 0.0168 c -0.28,0.0593 -0.425,0.2039 -0.425,0.5269 0,0.3488 0.34,0.6887 0.824,0.9184 -0.144,0.1441 -0.255,0.4246 -0.255,0.6453 0,0.8242 0.749,1.3937 1.497,1.3937 0.467,0 0.807,-0.2968 0.986,-0.705 h 0.008 c 0.093,0.3144 0.238,0.7734 0.621,0.7734 0.195,0 0.322,-0.1445 0.322,-0.3398"
         style="fill:#ffffff;fill-opacity:1;fill-rule:nonzero;stroke:none;stroke-width:0.1"
         id="path184"
         inkscape:connector-curvature="0" /><path
         d="m 62.1348,2.70313 c 0,-0.35625 0.1957,-0.6543 0.5609,-0.6543 0.2125,0 0.6715,0.16992 0.9859,1.03711 0.1528,0.425 0.3743,1.11328 0.3743,1.57226 0,0.34883 -0.1954,0.59493 -0.5442,0.59493 -0.4508,0 -0.7054,-0.425 -0.8926,-0.79922 C 62.3984,4.02031 62.1348,3.19648 62.1348,2.70313 Z M 64.982,5.33789 64.1746,2.42305 c -0.0683,-0.22071 0.068,-0.28047 0.1613,-0.28047 0.2891,0 0.7481,0.72265 0.8329,1.0625 L 65.3305,3.1543 C 65.0078,2.21875 64.5488,1.87891 64.166,1.87891 c -0.3226,0 -0.5863,0.21289 -0.5945,0.54414 H 63.5543 C 63.3328,2.0918 62.9426,1.87891 62.5766,1.87891 c -0.6711,0 -1.0879,0.53632 -1.0879,1.30078 0,0.97773 1.0711,2.24336 2.0312,2.24336 0.3406,0 0.5614,-0.21211 0.6805,-0.51758 h 0.0082 l 0.1445,0.43242 h 0.6289"
         style="fill:#ffffff;fill-opacity:1;fill-rule:nonzero;stroke:none;stroke-width:0.1"
         id="path186"
         inkscape:connector-curvature="0" /><path
         d="m 66.1977,5.14258 0.0597,0.19531 h 0.1614 c 0.2378,0 0.816,0.05195 1.1386,0.08516 l -0.2039,-0.77344 0.0172,-0.0082 c 0.2891,0.45937 0.8582,0.78164 1.2578,0.78164 0.425,0 0.7481,-0.15274 0.7481,-0.70508 0,-0.25508 -0.6036,-2.3293 -0.6036,-2.39649 0,-0.13593 0.1364,-0.16992 0.2375,-0.16992 0.3915,0 0.6719,0.71367 0.7907,1.02813 L 69.9629,3.11133 C 69.7336,2.54219 69.4188,1.87891 68.7395,1.87891 c -0.2891,0 -0.536,0.14453 -0.536,0.45898 0,0.50977 0.6035,2.21875 0.6035,2.49922 0,0.27148 -0.2039,0.32305 -0.3828,0.32305 -0.6453,0 -1.1726,-0.8418 -1.4023,-1.79375 L 66.6738,1.97266 h -0.6117 l 0.8156,3.16992 h -0.68"
         style="fill:#ffffff;fill-opacity:1;fill-rule:nonzero;stroke:none;stroke-width:0.1"
         id="path188"
         inkscape:connector-curvature="0" /><path
         d="m 71.2129,2.68672 c 0,-0.35664 0.2383,-0.63789 0.5863,-0.63789 0.4,0 0.7313,0.30664 1.0543,1.30976 0.102,0.30547 0.3059,0.96875 0.3059,1.3086 0,0.33984 -0.1785,0.58594 -0.5356,0.58594 -0.6629,0 -0.9773,-0.86641 -1.1644,-1.40235 C 71.3492,3.51094 71.2129,3.05195 71.2129,2.68672 Z M 74.443,3.20508 C 74.2305,2.61055 73.8734,1.87891 73.1762,1.87891 c -0.2891,0 -0.4926,0.24726 -0.5016,0.51875 H 72.6578 C 72.4453,2.0918 72.0629,1.87891 71.6809,1.87891 c -0.7141,0 -1.1133,0.64648 -1.1133,1.18164 0,1.02851 0.9515,2.3625 1.9969,2.3625 0.3062,0 0.5609,-0.13594 0.748,-0.37344 l 0.6797,2.5668 h -0.7051 l 0.059,0.19531 h 0.3234 c 0.6035,0 0.8071,0.02539 1.0028,0.04297 L 73.2527,2.50781 C 73.2359,2.43164 73.2273,2.38867 73.2273,2.38086 c 0,-0.11055 0.1278,-0.19531 0.2125,-0.19531 0.3571,0 0.7055,0.80664 0.8243,1.08789 L 74.443,3.20508"
         style="fill:#ffffff;fill-opacity:1;fill-rule:nonzero;stroke:none;stroke-width:0.1"
         id="path190"
         inkscape:connector-curvature="0" /><path
         d="m 82.441,7.59102 h 0.1528 l -0.3145,-1.51289 -0.2379,0.0332 c 0,1.14765 -0.493,1.4707 -1.0879,1.4707 -1.4277,0 -2.1844,-2.9832 -2.1844,-4.27539 0,-0.39062 0.1957,-1.23242 1.0539,-1.23242 0.9012,0 1.5047,0.79101 1.904,1.52148 L 81.9648,3.52852 81.5059,1.97266 h -0.1528 l -0.1617,0.33125 c -0.3738,-0.30586 -0.8668,-0.45899 -1.343,-0.45899 -1.0961,0 -1.9461,0.93555 -1.9461,2.03985 0,2.06562 1.6235,3.89257 3.1274,3.89257 0.3656,0 0.8078,-0.17851 1.0797,-0.43359 l 0.3316,0.24727"
         style="fill:#ffffff;fill-opacity:1;fill-rule:nonzero;stroke:none;stroke-width:0.1"
         id="path192"
         inkscape:connector-curvature="0" /><path
         d="m 83.6484,2.75508 c 0,-0.38281 0.2637,-0.70625 0.6465,-0.70625 0.5606,0 0.8156,0.45898 0.9856,0.93555 0.1785,0.49218 0.323,1.03593 0.323,1.56367 0,0.42461 -0.1699,0.70508 -0.6035,0.70508 -0.5352,0 -0.8418,-0.45899 -1.0027,-0.92579 C 83.8945,4.03828 83.6484,3.06055 83.6484,2.75508 Z m 0.6797,-0.87617 c -0.875,0 -1.3261,0.67187 -1.3261,1.2414 0,1.14727 0.9785,2.30274 2.0578,2.30274 0.7222,0 1.2398,-0.62891 1.2398,-1.35078 0,-0.97735 -0.9344,-2.19336 -1.9715,-2.19336"
         style="fill:#ffffff;fill-opacity:1;fill-rule:nonzero;stroke:none;stroke-width:0.1"
         id="path194"
         inkscape:connector-curvature="0" /><path
         d="m 87.2434,5.14258 0.0593,0.19531 h 0.1614 c 0.2214,0 0.7476,0.04297 1.1472,0.08516 l -0.1699,-0.70508 0.0254,-0.0168 c 0.3066,0.38164 0.6719,0.72188 1.1902,0.72188 0.3235,0 0.7231,-0.16133 0.7141,-0.72188 h 0.009 0.0164 c 0.3055,0.39063 0.6797,0.72188 1.1816,0.72188 0.4246,0 0.7481,-0.15274 0.7481,-0.70508 0,-0.25508 -0.6035,-2.3293 -0.6035,-2.39649 0,-0.13593 0.1359,-0.16992 0.2375,-0.16992 0.3914,0 0.6714,0.71367 0.791,1.02813 L 92.9121,3.11133 C 92.6824,2.54219 92.3684,1.87891 91.6887,1.87891 c -0.2895,0 -0.5356,0.14453 -0.5356,0.45898 0,0.50977 0.6035,2.21875 0.6035,2.49922 0,0.27148 -0.2039,0.32305 -0.3828,0.32305 -0.1277,0 -0.8925,-0.16211 -1.232,-1.44532 l -0.468,-1.74218 h -0.6035 l 0.5188,2.03125 c 0.0679,0.26367 0.1875,0.6289 0.1875,0.84179 0,0.21211 -0.1536,0.31446 -0.3403,0.31446 -0.1277,0 -0.8925,-0.16211 -1.232,-1.44532 l -0.468,-1.74218 h -0.6035 l 0.7902,3.16992 h -0.6796"
         style="fill:#ffffff;fill-opacity:1;fill-rule:nonzero;stroke:none;stroke-width:0.1"
         id="path196"
         inkscape:connector-curvature="0" /><path
         d="m 94.3242,2.66133 c 0,-0.31445 0.2207,-0.6125 0.5442,-0.6125 0.5007,0 0.6961,0.19531 0.9851,1.01172 0.2551,0.71406 0.332,1.14726 0.332,1.47851 0,0.42578 -0.1281,0.71407 -0.5781,0.71407 -0.6035,0 -0.9011,-0.79024 -1.0281,-1.29102 C 94.4766,3.5957 94.3242,3.03516 94.3242,2.66133 Z M 92.582,0.0519531 92.6406,0.221875 h 0.468 L 94.2898,5.14258 H 93.627 l 0.0593,0.19531 h 0.1614 c 0.2043,0 0.6543,0.04297 1.08,0.08516 L 94.791,4.92188 94.8086,4.90547 c 0.2461,0.29687 0.4922,0.51758 0.9348,0.51758 0.3738,0 1.0879,-0.2461 1.0879,-1.35938 0,-0.96875 -0.9094,-2.18476 -1.8782,-2.18476 -0.3144,0 -0.6125,0.11914 -0.748,0.43359 H 94.1875 L 93.6863,0.221875 h 0.6203 L 94.2473,0.0519531 H 92.582"
         style="fill:#ffffff;fill-opacity:1;fill-rule:nonzero;stroke:none;stroke-width:0.1"
         id="path198"
         inkscape:connector-curvature="0" /><path
         d="m 97.7488,5.14258 0.0598,0.19531 h 0.1609 c 0.2383,0 0.8164,0.05195 1.1399,0.08516 L 98.4973,2.89961 c -0.0254,-0.11914 -0.102,-0.31445 -0.102,-0.46797 0,-0.25469 0.2375,-0.29766 0.3313,-0.29766 0.5183,0 1.0714,0.58672 1.2668,1.32618 l 0.4846,1.87773 h 0.603 l -0.374,-1.42773 c -0.094,-0.38164 -0.357,-1.325 -0.357,-1.45313 0,-0.14453 0.051,-0.28906 0.221,-0.28906 0.416,0 0.689,0.68867 0.816,1.02851 l 0.153,-0.05117 c -0.187,-0.57773 -0.527,-1.2664 -1.198,-1.2664 -0.4682,0 -0.6123,0.34882 -0.544,0.73945 L 99.7727,2.63594 C 99.5254,2.23633 99.0242,1.87891 98.5313,1.87891 c -0.3653,0 -0.7227,0.13672 -0.7227,0.58711 0,0.08476 0.1023,0.41601 0.1609,0.67929 l 0.468,1.99727 h -0.6887"
         style="fill:#ffffff;fill-opacity:1;fill-rule:nonzero;stroke:none;stroke-width:0.1"
         id="path200"
         inkscape:connector-curvature="0" /><path
         d="m 103.462,5.14258 -0.621,-2.44727 c -0.051,-0.1875 -0.094,-0.31445 -0.094,-0.36523 0,-0.12774 0.052,-0.1961 0.171,-0.1961 0.373,0 0.747,0.53594 0.926,1.15625 l 0.162,-0.05976 c -0.153,-0.62891 -0.629,-1.35156 -1.318,-1.35156 -0.238,0 -0.543,0.12812 -0.543,0.425 0,0.11914 0.067,0.28906 0.135,0.57812 l 0.57,2.26055 h -0.579 l 0.06,0.19531 h 0.578 l 0.246,0.92695 h 0.613 l -0.247,-0.92695 h 0.655 l -0.06,-0.19531 h -0.654"
         style="fill:#ffffff;fill-opacity:1;fill-rule:nonzero;stroke:none;stroke-width:0.1"
         id="path202"
         inkscape:connector-curvature="0" /><path
         d="m 107.048,4.83711 c 0,0.20391 -0.161,0.39062 -0.365,0.39062 -0.595,0 -0.953,-0.94335 -1.088,-1.42812 1.003,0 1.453,0.47695 1.453,1.0375 z m 0.34,-1.99727 c -0.315,-0.57812 -0.671,-0.96093 -1.351,-0.96093 -0.748,0 -1.275,0.65429 -1.275,1.35156 0,1.0625 1.053,2.19258 2.074,2.19258 0.459,0 0.815,-0.28828 0.815,-0.69649 0,-0.53515 -0.526,-1.09648 -2.099,-1.10547 -0.06,-0.23711 -0.127,-0.47578 -0.127,-0.73906 0,-0.425 0.195,-0.79023 0.645,-0.79023 0.613,0 0.876,0.33984 1.173,0.84961 l 0.145,-0.10157"
         style="fill:#ffffff;fill-opacity:1;fill-rule:nonzero;stroke:none;stroke-width:0.1"
         id="path204"
         inkscape:connector-curvature="0" /><path
         d="m 109.199,5.14258 h -0.672 l 0.06,0.19531 h 0.162 c 0.237,0 0.815,0.05195 1.139,0.08516 l -0.213,-0.84961 0.017,-0.00899 c 0.204,0.3918 0.586,0.8586 1.045,0.8586 0.196,0 0.392,-0.11836 0.392,-0.34024 0,-0.19492 -0.153,-0.33945 -0.341,-0.33945 -0.237,0 -0.34,0.2293 -0.484,0.2293 -0.178,0 -0.671,-0.59453 -0.875,-1.41094 l -0.4,-1.58906 h -0.612 l 0.782,3.16992"
         style="fill:#ffffff;fill-opacity:1;fill-rule:nonzero;stroke:none;stroke-width:0.1"
         id="path206"
         inkscape:connector-curvature="0" /><path
         d="m 114.01,1.96406 h -0.128 l 0.365,1.61485 0.204,-0.05039 c 0,-0.81641 0.349,-1.4961 1.267,-1.4961 0.714,0 1.283,0.61211 1.283,1.28321 0,1.33398 -2.158,1.11328 -2.158,2.77031 0,0.94336 0.654,1.6914 1.597,1.6914 0.382,0 0.74,-0.16093 1.029,-0.41601 L 117.8,7.625 h 0.162 l -0.323,-1.45391 -0.204,0.02539 c -0.035,1.09649 -0.442,1.39454 -1.045,1.39454 -0.596,0 -1.114,-0.425 -1.114,-1.07149 0,-1.05351 2.328,-1.01953 2.328,-2.71094 0,-0.84179 -0.628,-1.96367 -1.98,-1.96367 -0.407,0 -0.824,0.14453 -1.13,0.4336 L 114.01,1.96406"
         style="fill:#ffffff;fill-opacity:1;fill-rule:nonzero;stroke:none;stroke-width:0.1"
         id="path208"
         inkscape:connector-curvature="0" /><path
         d="m 121.142,2.79688 c -0.307,-0.4668 -0.757,-0.91797 -1.344,-0.91797 -0.994,0 -1.343,0.80781 -1.343,1.23242 0,1.15625 1.028,2.31172 2.057,2.31172 0.426,0 0.876,-0.2375 0.876,-0.73047 0,-0.19531 -0.145,-0.4082 -0.34,-0.4082 -0.179,0 -0.34,0.11914 -0.34,0.30664 0,0.28789 0.246,0.34765 0.246,0.46679 0,0.14453 -0.289,0.19532 -0.408,0.19532 -0.654,0 -0.926,-0.59493 -1.07,-0.96875 -0.23,-0.62032 -0.349,-1.07032 -0.349,-1.50391 0,-0.43359 0.271,-0.68867 0.671,-0.68867 0.561,0 0.892,0.37422 1.207,0.79883 l 0.137,-0.09375"
         style="fill:#ffffff;fill-opacity:1;fill-rule:nonzero;stroke:none;stroke-width:0.1"
         id="path210"
         inkscape:connector-curvature="0" /><path
         d="m 123.283,7.14063 c 0,0.22851 0.17,0.41601 0.391,0.41601 0.221,0 0.39,-0.1875 0.39,-0.41601 0,-0.23829 -0.169,-0.40821 -0.39,-0.40821 -0.221,0 -0.391,0.16992 -0.391,0.40821 z m 0.799,-4.00391 c -0.238,-0.73906 -0.638,-1.25781 -1.275,-1.25781 -0.264,0 -0.536,0.13672 -0.536,0.44257 0,0.11016 0.051,0.33985 0.085,0.4754 l 0.613,2.3457 h -0.672 l 0.059,0.19531 h 0.162 c 0.238,0 0.816,0.05195 1.139,0.08516 l -0.74,-2.77852 c -0.025,-0.10234 -0.076,-0.22148 -0.076,-0.30664 0,-0.11016 0.136,-0.16094 0.238,-0.16094 0.349,0 0.663,0.56914 0.841,1.01953 l 0.162,-0.05976"
         style="fill:#ffffff;fill-opacity:1;fill-rule:nonzero;stroke:none;stroke-width:0.1"
         id="path212"
         inkscape:connector-curvature="0" /><path
         d="m 127.015,4.83711 c 0,0.20391 -0.161,0.39062 -0.366,0.39062 -0.594,0 -0.952,-0.94335 -1.087,-1.42812 1.002,0 1.453,0.47695 1.453,1.0375 z m 0.339,-1.99727 c -0.314,-0.57812 -0.67,-0.96093 -1.35,-0.96093 -0.748,0 -1.275,0.65429 -1.275,1.35156 0,1.0625 1.053,2.19258 2.074,2.19258 0.459,0 0.815,-0.28828 0.815,-0.69649 0,-0.53515 -0.526,-1.09648 -2.099,-1.10547 -0.06,-0.23711 -0.127,-0.47578 -0.127,-0.73906 0,-0.425 0.195,-0.79023 0.645,-0.79023 0.612,0 0.876,0.33984 1.173,0.84961 l 0.144,-0.10157"
         style="fill:#ffffff;fill-opacity:1;fill-rule:nonzero;stroke:none;stroke-width:0.1"
         id="path214"
         inkscape:connector-curvature="0" /><path
         d="m 128.562,5.14258 0.059,0.19531 h 0.161 c 0.239,0 0.817,0.05195 1.14,0.08516 l -0.204,-0.77344 0.016,-0.0082 c 0.289,0.45937 0.859,0.78164 1.258,0.78164 0.425,0 0.748,-0.15274 0.748,-0.70508 0,-0.25508 -0.603,-2.3293 -0.603,-2.39649 0,-0.13593 0.135,-0.16992 0.238,-0.16992 0.391,0 0.671,0.71367 0.79,1.02813 l 0.161,-0.06836 c -0.228,-0.56914 -0.543,-1.23242 -1.223,-1.23242 -0.29,0 -0.536,0.14453 -0.536,0.45898 0,0.50977 0.604,2.21875 0.604,2.49922 0,0.27148 -0.204,0.32305 -0.383,0.32305 -0.645,0 -1.173,-0.8418 -1.402,-1.79375 l -0.349,-1.39375 h -0.611 l 0.815,3.16992 h -0.679"
         style="fill:#ffffff;fill-opacity:1;fill-rule:nonzero;stroke:none;stroke-width:0.1"
         id="path216"
         inkscape:connector-curvature="0" /><path
         d="m 135.558,2.79688 c -0.307,-0.4668 -0.757,-0.91797 -1.344,-0.91797 -0.994,0 -1.343,0.80781 -1.343,1.23242 0,1.15625 1.028,2.31172 2.057,2.31172 0.426,0 0.876,-0.2375 0.876,-0.73047 0,-0.19531 -0.145,-0.4082 -0.34,-0.4082 -0.179,0 -0.34,0.11914 -0.34,0.30664 0,0.28789 0.246,0.34765 0.246,0.46679 0,0.14453 -0.289,0.19532 -0.408,0.19532 -0.654,0 -0.926,-0.59493 -1.07,-0.96875 -0.23,-0.62032 -0.349,-1.07032 -0.349,-1.50391 0,-0.43359 0.271,-0.68867 0.671,-0.68867 0.561,0 0.892,0.37422 1.207,0.79883 l 0.137,-0.09375"
         style="fill:#ffffff;fill-opacity:1;fill-rule:nonzero;stroke:none;stroke-width:0.1"
         id="path218"
         inkscape:connector-curvature="0" /><path
         d="m 138.77,4.83711 c 0,0.20391 -0.162,0.39062 -0.366,0.39062 -0.594,0 -0.952,-0.94335 -1.088,-1.42812 1.003,0 1.454,0.47695 1.454,1.0375 z m 0.339,-1.99727 c -0.314,-0.57812 -0.671,-0.96093 -1.351,-0.96093 -0.747,0 -1.275,0.65429 -1.275,1.35156 0,1.0625 1.054,2.19258 2.075,2.19258 0.459,0 0.815,-0.28828 0.815,-0.69649 0,-0.53515 -0.527,-1.09648 -2.1,-1.10547 -0.058,-0.23711 -0.127,-0.47578 -0.127,-0.73906 0,-0.425 0.196,-0.79023 0.646,-0.79023 0.612,0 0.876,0.33984 1.173,0.84961 l 0.144,-0.10157"
         style="fill:#ffffff;fill-opacity:1;fill-rule:nonzero;stroke:none;stroke-width:0.1"
         id="path220"
         inkscape:connector-curvature="0" /></g></g></svg>